SplineFontDB: 3.0
FontName: tetris9
FullName: tetris9
FamilyName: tetris9
Weight: Regular
Copyright: Copyright (c) 2020, mehrdad,,,
UComments: "2020-10-5: Created with FontForge (http://fontforge.org)"
Version: 001.000
ItalicAngle: 0
UnderlinePosition: -100
UnderlineWidth: 50
Ascent: 800
Descent: 200
InvalidEm: 0
LayerCount: 2
Layer: 0 0 "Back" 1
Layer: 1 0 "Fore" 0
XUID: [1021 1010 1594317023 2594504]
StyleMap: 0x0000
FSType: 0
OS2Version: 0
OS2_WeightWidthSlopeOnly: 0
OS2_UseTypoMetrics: 1
CreationTime: 1601884262
ModificationTime: 1601889212
OS2TypoAscent: 0
OS2TypoAOffset: 1
OS2TypoDescent: 0
OS2TypoDOffset: 1
OS2TypoLinegap: 90
OS2WinAscent: 0
OS2WinAOffset: 1
OS2WinDescent: 0
OS2WinDOffset: 1
HheadAscent: 0
HheadAOffset: 1
HheadDescent: 0
HheadDOffset: 1
MarkAttachClasses: 1
DEI: 91125
Encoding: ISO8859-1
UnicodeInterp: none
NameList: AGL For New Fonts
DisplaySize: -48
AntiAlias: 1
FitToEm: 0
WinInfo: 0 38 13
BeginPrivate: 0
EndPrivate
BeginChars: 256 94

StartChar: exclam
Encoding: 33 33 0
Width: 1000
VWidth: 0
Flags: HW
LayerCount: 2
Fore
SplineSet
661.1328125 -129.686523438 m 1
 661.1328125 138.8671875 l 1
 929.6875 138.8671875 l 1
 929.6875 -129.686523438 l 1
 661.1328125 -129.686523438 l 1
70.3134765625 165.723632812 m 1
 70.3134765625 434.27734375 l 1
 338.8671875 434.27734375 l 1
 338.8671875 165.723632812 l 1
 70.3134765625 165.723632812 l 1
70.3134765625 -129.686523438 m 1
 70.3134765625 138.8671875 l 1
 338.8671875 138.8671875 l 1
 338.8671875 -129.686523438 l 1
 70.3134765625 -129.686523438 l 1
70.3134765625 461.1328125 m 1
 70.3134765625 729.6875 l 1
 338.8671875 729.6875 l 1
 338.8671875 461.1328125 l 1
 70.3134765625 461.1328125 l 1
EndSplineSet
Validated: 1
EndChar

StartChar: quotedbl
Encoding: 34 34 1
Width: 1000
VWidth: 0
Flags: HW
LayerCount: 2
Fore
SplineSet
661.1328125 165.723632812 m 1
 661.1328125 434.27734375 l 1
 929.6875 434.27734375 l 1
 929.6875 165.723632812 l 1
 661.1328125 165.723632812 l 1
70.3134765625 165.723632812 m 1
 70.3134765625 434.27734375 l 1
 338.8671875 434.27734375 l 1
 338.8671875 165.723632812 l 1
 70.3134765625 165.723632812 l 1
661.1328125 461.1328125 m 1
 661.1328125 729.6875 l 1
 929.6875 729.6875 l 1
 929.6875 461.1328125 l 1
 661.1328125 461.1328125 l 1
70.3134765625 461.1328125 m 1
 70.3134765625 729.6875 l 1
 338.8671875 729.6875 l 1
 338.8671875 461.1328125 l 1
 70.3134765625 461.1328125 l 1
EndSplineSet
Validated: 1
EndChar

StartChar: numbersign
Encoding: 35 35 2
Width: 1000
VWidth: 0
Flags: HW
LayerCount: 2
Fore
SplineSet
661.1328125 -129.686523438 m 1
 661.1328125 138.8671875 l 1
 929.6875 138.8671875 l 1
 929.6875 -129.686523438 l 1
 661.1328125 -129.686523438 l 1
70.3134765625 -129.686523438 m 1
 70.3134765625 138.8671875 l 1
 338.8671875 138.8671875 l 1
 338.8671875 -129.686523438 l 1
 70.3134765625 -129.686523438 l 1
661.1328125 461.1328125 m 1
 661.1328125 729.6875 l 1
 929.6875 729.6875 l 1
 929.6875 461.1328125 l 1
 661.1328125 461.1328125 l 1
70.3134765625 461.1328125 m 1
 70.3134765625 729.6875 l 1
 338.8671875 729.6875 l 1
 338.8671875 461.1328125 l 1
 70.3134765625 461.1328125 l 1
EndSplineSet
Validated: 1
EndChar

StartChar: dollar
Encoding: 36 36 3
Width: 1000
VWidth: 0
Flags: HW
LayerCount: 2
Fore
SplineSet
365.723632812 729.6875 m 1
 634.278320312 729.6875 l 1
 634.278320312 461.133789062 l 1
 365.723632812 461.133789062 l 1
 365.723632812 729.6875 l 1
70.3134765625 165.723632812 m 1
 70.3134765625 434.27734375 l 1
 338.8671875 434.27734375 l 1
 338.8671875 165.723632812 l 1
 70.3134765625 165.723632812 l 1
70.3134765625 -129.686523438 m 1
 70.3134765625 138.8671875 l 1
 338.8671875 138.8671875 l 1
 338.8671875 -129.686523438 l 1
 70.3134765625 -129.686523438 l 1
365.723632812 165.723632812 m 1
 365.723632812 434.27734375 l 1
 634.278320312 434.27734375 l 1
 634.278320312 165.723632812 l 1
 365.723632812 165.723632812 l 1
365.723632812 -129.686523438 m 1
 365.723632812 138.8671875 l 1
 634.278320312 138.8671875 l 1
 634.278320312 -129.686523438 l 1
 365.723632812 -129.686523438 l 1
70.3134765625 461.1328125 m 1
 70.3134765625 729.6875 l 1
 338.8671875 729.6875 l 1
 338.8671875 461.1328125 l 1
 70.3134765625 461.1328125 l 1
EndSplineSet
Validated: 1
EndChar

StartChar: percent
Encoding: 37 37 4
Width: 1000
VWidth: 0
Flags: HW
LayerCount: 2
Fore
SplineSet
661.1328125 -129.686523438 m 1
 661.1328125 138.8671875 l 1
 929.6875 138.8671875 l 1
 929.6875 -129.686523438 l 1
 661.1328125 -129.686523438 l 1
70.3134765625 461.1328125 m 1
 70.3134765625 729.6875 l 1
 338.8671875 729.6875 l 1
 338.8671875 461.1328125 l 1
 70.3134765625 461.1328125 l 1
EndSplineSet
Validated: 1
EndChar

StartChar: ampersand
Encoding: 38 38 5
Width: 1000
VWidth: 0
Flags: HW
LayerCount: 2
Fore
SplineSet
365.723632812 729.6875 m 1
 634.278320312 729.6875 l 1
 634.278320312 461.133789062 l 1
 365.723632812 461.133789062 l 1
 365.723632812 729.6875 l 1
661.1328125 -129.686523438 m 1
 661.1328125 138.8671875 l 1
 929.6875 138.8671875 l 1
 929.6875 -129.686523438 l 1
 661.1328125 -129.686523438 l 1
70.3134765625 165.723632812 m 1
 70.3134765625 434.27734375 l 1
 338.8671875 434.27734375 l 1
 338.8671875 165.723632812 l 1
 70.3134765625 165.723632812 l 1
70.3134765625 -129.686523438 m 1
 70.3134765625 138.8671875 l 1
 338.8671875 138.8671875 l 1
 338.8671875 -129.686523438 l 1
 70.3134765625 -129.686523438 l 1
365.723632812 165.723632812 m 1
 365.723632812 434.27734375 l 1
 634.278320312 434.27734375 l 1
 634.278320312 165.723632812 l 1
 365.723632812 165.723632812 l 1
365.723632812 -129.686523438 m 1
 365.723632812 138.8671875 l 1
 634.278320312 138.8671875 l 1
 634.278320312 -129.686523438 l 1
 365.723632812 -129.686523438 l 1
661.1328125 461.1328125 m 1
 661.1328125 729.6875 l 1
 929.6875 729.6875 l 1
 929.6875 461.1328125 l 1
 661.1328125 461.1328125 l 1
EndSplineSet
Validated: 1
EndChar

StartChar: quotesingle
Encoding: 39 39 6
Width: 1000
VWidth: 0
Flags: HW
LayerCount: 2
Fore
SplineSet
365.723632812 729.6875 m 1
 634.278320312 729.6875 l 1
 634.278320312 461.133789062 l 1
 365.723632812 461.133789062 l 1
 365.723632812 729.6875 l 1
365.723632812 165.723632812 m 1
 365.723632812 434.27734375 l 1
 634.278320312 434.27734375 l 1
 634.278320312 165.723632812 l 1
 365.723632812 165.723632812 l 1
EndSplineSet
Validated: 1
EndChar

StartChar: parenleft
Encoding: 40 40 7
Width: 1000
VWidth: 0
Flags: HW
LayerCount: 2
Fore
SplineSet
365.723632812 729.6875 m 1
 634.278320312 729.6875 l 1
 634.278320312 461.133789062 l 1
 365.723632812 461.133789062 l 1
 365.723632812 729.6875 l 1
661.1328125 -129.686523438 m 1
 661.1328125 138.8671875 l 1
 929.6875 138.8671875 l 1
 929.6875 -129.686523438 l 1
 661.1328125 -129.686523438 l 1
70.3134765625 165.723632812 m 1
 70.3134765625 434.27734375 l 1
 338.8671875 434.27734375 l 1
 338.8671875 165.723632812 l 1
 70.3134765625 165.723632812 l 1
365.723632812 -129.686523438 m 1
 365.723632812 138.8671875 l 1
 634.278320312 138.8671875 l 1
 634.278320312 -129.686523438 l 1
 365.723632812 -129.686523438 l 1
661.1328125 461.1328125 m 1
 661.1328125 729.6875 l 1
 929.6875 729.6875 l 1
 929.6875 461.1328125 l 1
 661.1328125 461.1328125 l 1
EndSplineSet
Validated: 1
EndChar

StartChar: parenright
Encoding: 41 41 8
Width: 1000
VWidth: 0
Flags: HW
LayerCount: 2
Fore
SplineSet
365.723632812 729.6875 m 1
 634.278320312 729.6875 l 1
 634.278320312 461.133789062 l 1
 365.723632812 461.133789062 l 1
 365.723632812 729.6875 l 1
661.1328125 165.723632812 m 1
 661.1328125 434.27734375 l 1
 929.6875 434.27734375 l 1
 929.6875 165.723632812 l 1
 661.1328125 165.723632812 l 1
70.3134765625 -129.686523438 m 1
 70.3134765625 138.8671875 l 1
 338.8671875 138.8671875 l 1
 338.8671875 -129.686523438 l 1
 70.3134765625 -129.686523438 l 1
365.723632812 -129.686523438 m 1
 365.723632812 138.8671875 l 1
 634.278320312 138.8671875 l 1
 634.278320312 -129.686523438 l 1
 365.723632812 -129.686523438 l 1
70.3134765625 461.1328125 m 1
 70.3134765625 729.6875 l 1
 338.8671875 729.6875 l 1
 338.8671875 461.1328125 l 1
 70.3134765625 461.1328125 l 1
EndSplineSet
Validated: 1
EndChar

StartChar: asterisk
Encoding: 42 42 9
Width: 1000
VWidth: 0
Flags: HW
LayerCount: 2
Fore
SplineSet
365.723632812 729.6875 m 1
 634.278320312 729.6875 l 1
 634.278320312 461.133789062 l 1
 365.723632812 461.133789062 l 1
 365.723632812 729.6875 l 1
661.1328125 165.723632812 m 1
 661.1328125 434.27734375 l 1
 929.6875 434.27734375 l 1
 929.6875 165.723632812 l 1
 661.1328125 165.723632812 l 1
661.1328125 -129.686523438 m 1
 661.1328125 138.8671875 l 1
 929.6875 138.8671875 l 1
 929.6875 -129.686523438 l 1
 661.1328125 -129.686523438 l 1
70.3134765625 165.723632812 m 1
 70.3134765625 434.27734375 l 1
 338.8671875 434.27734375 l 1
 338.8671875 165.723632812 l 1
 70.3134765625 165.723632812 l 1
70.3134765625 -129.686523438 m 1
 70.3134765625 138.8671875 l 1
 338.8671875 138.8671875 l 1
 338.8671875 -129.686523438 l 1
 70.3134765625 -129.686523438 l 1
365.723632812 165.723632812 m 1
 365.723632812 434.27734375 l 1
 634.278320312 434.27734375 l 1
 634.278320312 165.723632812 l 1
 365.723632812 165.723632812 l 1
365.723632812 -129.686523438 m 1
 365.723632812 138.8671875 l 1
 634.278320312 138.8671875 l 1
 634.278320312 -129.686523438 l 1
 365.723632812 -129.686523438 l 1
EndSplineSet
Validated: 1
EndChar

StartChar: plus
Encoding: 43 43 10
Width: 1000
VWidth: 0
Flags: HW
LayerCount: 2
Fore
SplineSet
365.723632812 729.6875 m 1
 634.278320312 729.6875 l 1
 634.278320312 461.133789062 l 1
 365.723632812 461.133789062 l 1
 365.723632812 729.6875 l 1
661.1328125 165.723632812 m 1
 661.1328125 434.27734375 l 1
 929.6875 434.27734375 l 1
 929.6875 165.723632812 l 1
 661.1328125 165.723632812 l 1
70.3134765625 165.723632812 m 1
 70.3134765625 434.27734375 l 1
 338.8671875 434.27734375 l 1
 338.8671875 165.723632812 l 1
 70.3134765625 165.723632812 l 1
365.723632812 165.723632812 m 1
 365.723632812 434.27734375 l 1
 634.278320312 434.27734375 l 1
 634.278320312 165.723632812 l 1
 365.723632812 165.723632812 l 1
365.723632812 -129.686523438 m 1
 365.723632812 138.8671875 l 1
 634.278320312 138.8671875 l 1
 634.278320312 -129.686523438 l 1
 365.723632812 -129.686523438 l 1
EndSplineSet
Validated: 1
EndChar

StartChar: comma
Encoding: 44 44 11
Width: 1000
VWidth: 0
Flags: HW
LayerCount: 2
Fore
SplineSet
70.3134765625 -129.686523438 m 1
 70.3134765625 138.8671875 l 1
 338.8671875 138.8671875 l 1
 338.8671875 -129.686523438 l 1
 70.3134765625 -129.686523438 l 1
365.723632812 165.723632812 m 1
 365.723632812 434.27734375 l 1
 634.278320312 434.27734375 l 1
 634.278320312 165.723632812 l 1
 365.723632812 165.723632812 l 1
EndSplineSet
Validated: 1
EndChar

StartChar: hyphen
Encoding: 45 45 12
Width: 1000
VWidth: 0
Flags: HW
LayerCount: 2
Fore
SplineSet
70.3134765625 165.723632812 m 1
 70.3134765625 434.27734375 l 1
 338.8671875 434.27734375 l 1
 338.8671875 165.723632812 l 1
 70.3134765625 165.723632812 l 1
365.723632812 165.723632812 m 1
 365.723632812 434.27734375 l 1
 634.278320312 434.27734375 l 1
 634.278320312 165.723632812 l 1
 365.723632812 165.723632812 l 1
EndSplineSet
Validated: 1
EndChar

StartChar: period
Encoding: 46 46 13
Width: 1000
VWidth: 0
Flags: HW
LayerCount: 2
Fore
SplineSet
365.723632812 -129.686523438 m 1
 365.723632812 138.8671875 l 1
 634.278320312 138.8671875 l 1
 634.278320312 -129.686523438 l 1
 365.723632812 -129.686523438 l 1
EndSplineSet
Validated: 1
EndChar

StartChar: slash
Encoding: 47 47 14
Width: 1000
VWidth: 0
Flags: HW
LayerCount: 2
Fore
SplineSet
70.3134765625 -129.686523438 m 1
 70.3134765625 138.8671875 l 1
 338.8671875 138.8671875 l 1
 338.8671875 -129.686523438 l 1
 70.3134765625 -129.686523438 l 1
365.723632812 165.723632812 m 1
 365.723632812 434.27734375 l 1
 634.278320312 434.27734375 l 1
 634.278320312 165.723632812 l 1
 365.723632812 165.723632812 l 1
661.1328125 461.1328125 m 1
 661.1328125 729.6875 l 1
 929.6875 729.6875 l 1
 929.6875 461.1328125 l 1
 661.1328125 461.1328125 l 1
EndSplineSet
Validated: 1
EndChar

StartChar: G
Encoding: 71 71 15
Width: 1000
VWidth: 0
Flags: HW
LayerCount: 2
Fore
SplineSet
365.723632812 729.6875 m 1
 634.278320312 729.6875 l 1
 634.278320312 461.133789062 l 1
 365.723632812 461.133789062 l 1
 365.723632812 729.6875 l 1
661.1328125 165.723632812 m 1
 661.1328125 434.27734375 l 1
 929.6875 434.27734375 l 1
 929.6875 165.723632812 l 1
 661.1328125 165.723632812 l 1
661.1328125 -129.686523438 m 1
 661.1328125 138.8671875 l 1
 929.6875 138.8671875 l 1
 929.6875 -129.686523438 l 1
 661.1328125 -129.686523438 l 1
70.3134765625 165.723632812 m 1
 70.3134765625 434.27734375 l 1
 338.8671875 434.27734375 l 1
 338.8671875 165.723632812 l 1
 70.3134765625 165.723632812 l 1
70.3134765625 -129.686523438 m 1
 70.3134765625 138.8671875 l 1
 338.8671875 138.8671875 l 1
 338.8671875 -129.686523438 l 1
 70.3134765625 -129.686523438 l 1
365.723632812 -129.686523438 m 1
 365.723632812 138.8671875 l 1
 634.278320312 138.8671875 l 1
 634.278320312 -129.686523438 l 1
 365.723632812 -129.686523438 l 1
70.3134765625 461.1328125 m 1
 70.3134765625 729.6875 l 1
 338.8671875 729.6875 l 1
 338.8671875 461.1328125 l 1
 70.3134765625 461.1328125 l 1
EndSplineSet
Validated: 524289
EndChar

StartChar: F
Encoding: 70 70 16
Width: 1000
VWidth: 0
Flags: HW
LayerCount: 2
Fore
SplineSet
365.723632812 729.6875 m 1
 634.278320312 729.6875 l 1
 634.278320312 461.133789062 l 1
 365.723632812 461.133789062 l 1
 365.723632812 729.6875 l 1
70.3134765625 165.723632812 m 1
 70.3134765625 434.27734375 l 1
 338.8671875 434.27734375 l 1
 338.8671875 165.723632812 l 1
 70.3134765625 165.723632812 l 1
70.3134765625 -129.686523438 m 1
 70.3134765625 138.8671875 l 1
 338.8671875 138.8671875 l 1
 338.8671875 -129.686523438 l 1
 70.3134765625 -129.686523438 l 1
365.723632812 165.723632812 m 1
 365.723632812 434.27734375 l 1
 634.278320312 434.27734375 l 1
 634.278320312 165.723632812 l 1
 365.723632812 165.723632812 l 1
661.1328125 461.1328125 m 1
 661.1328125 729.6875 l 1
 929.6875 729.6875 l 1
 929.6875 461.1328125 l 1
 661.1328125 461.1328125 l 1
70.3134765625 461.1328125 m 1
 70.3134765625 729.6875 l 1
 338.8671875 729.6875 l 1
 338.8671875 461.1328125 l 1
 70.3134765625 461.1328125 l 1
EndSplineSet
Validated: 524289
EndChar

StartChar: E
Encoding: 69 69 17
Width: 1000
VWidth: 0
Flags: HW
LayerCount: 2
Fore
SplineSet
365.723632812 729.6875 m 1
 634.278320312 729.6875 l 1
 634.278320312 461.133789062 l 1
 365.723632812 461.133789062 l 1
 365.723632812 729.6875 l 1
661.1328125 -129.686523438 m 1
 661.1328125 138.8671875 l 1
 929.6875 138.8671875 l 1
 929.6875 -129.686523438 l 1
 661.1328125 -129.686523438 l 1
70.3134765625 165.723632812 m 1
 70.3134765625 434.27734375 l 1
 338.8671875 434.27734375 l 1
 338.8671875 165.723632812 l 1
 70.3134765625 165.723632812 l 1
70.3134765625 -129.686523438 m 1
 70.3134765625 138.8671875 l 1
 338.8671875 138.8671875 l 1
 338.8671875 -129.686523438 l 1
 70.3134765625 -129.686523438 l 1
365.723632812 165.723632812 m 1
 365.723632812 434.27734375 l 1
 634.278320312 434.27734375 l 1
 634.278320312 165.723632812 l 1
 365.723632812 165.723632812 l 1
365.723632812 -129.686523438 m 1
 365.723632812 138.8671875 l 1
 634.278320312 138.8671875 l 1
 634.278320312 -129.686523438 l 1
 365.723632812 -129.686523438 l 1
661.1328125 461.1328125 m 1
 661.1328125 729.6875 l 1
 929.6875 729.6875 l 1
 929.6875 461.1328125 l 1
 661.1328125 461.1328125 l 1
70.3134765625 461.1328125 m 1
 70.3134765625 729.6875 l 1
 338.8671875 729.6875 l 1
 338.8671875 461.1328125 l 1
 70.3134765625 461.1328125 l 1
EndSplineSet
Validated: 524289
EndChar

StartChar: D
Encoding: 68 68 18
Width: 1000
VWidth: 0
Flags: HW
LayerCount: 2
Fore
SplineSet
365.723632812 729.6875 m 1
 634.278320312 729.6875 l 1
 634.278320312 461.133789062 l 1
 365.723632812 461.133789062 l 1
 365.723632812 729.6875 l 1
661.1328125 165.723632812 m 1
 661.1328125 434.27734375 l 1
 929.6875 434.27734375 l 1
 929.6875 165.723632812 l 1
 661.1328125 165.723632812 l 1
70.3134765625 165.723632812 m 1
 70.3134765625 434.27734375 l 1
 338.8671875 434.27734375 l 1
 338.8671875 165.723632812 l 1
 70.3134765625 165.723632812 l 1
70.3134765625 -129.686523438 m 1
 70.3134765625 138.8671875 l 1
 338.8671875 138.8671875 l 1
 338.8671875 -129.686523438 l 1
 70.3134765625 -129.686523438 l 1
365.723632812 -129.686523438 m 1
 365.723632812 138.8671875 l 1
 634.278320312 138.8671875 l 1
 634.278320312 -129.686523438 l 1
 365.723632812 -129.686523438 l 1
70.3134765625 461.1328125 m 1
 70.3134765625 729.6875 l 1
 338.8671875 729.6875 l 1
 338.8671875 461.1328125 l 1
 70.3134765625 461.1328125 l 1
EndSplineSet
Validated: 524289
EndChar

StartChar: C
Encoding: 67 67 19
Width: 1000
VWidth: 0
Flags: HW
LayerCount: 2
Fore
SplineSet
365.723632812 729.6875 m 1
 634.278320312 729.6875 l 1
 634.278320312 461.133789062 l 1
 365.723632812 461.133789062 l 1
 365.723632812 729.6875 l 1
661.1328125 -129.686523438 m 1
 661.1328125 138.8671875 l 1
 929.6875 138.8671875 l 1
 929.6875 -129.686523438 l 1
 661.1328125 -129.686523438 l 1
70.3134765625 165.723632812 m 1
 70.3134765625 434.27734375 l 1
 338.8671875 434.27734375 l 1
 338.8671875 165.723632812 l 1
 70.3134765625 165.723632812 l 1
70.3134765625 -129.686523438 m 1
 70.3134765625 138.8671875 l 1
 338.8671875 138.8671875 l 1
 338.8671875 -129.686523438 l 1
 70.3134765625 -129.686523438 l 1
365.723632812 -129.686523438 m 1
 365.723632812 138.8671875 l 1
 634.278320312 138.8671875 l 1
 634.278320312 -129.686523438 l 1
 365.723632812 -129.686523438 l 1
661.1328125 461.1328125 m 1
 661.1328125 729.6875 l 1
 929.6875 729.6875 l 1
 929.6875 461.1328125 l 1
 661.1328125 461.1328125 l 1
70.3134765625 461.1328125 m 1
 70.3134765625 729.6875 l 1
 338.8671875 729.6875 l 1
 338.8671875 461.1328125 l 1
 70.3134765625 461.1328125 l 1
EndSplineSet
Validated: 524289
EndChar

StartChar: B
Encoding: 66 66 20
Width: 1000
VWidth: 0
Flags: HW
LayerCount: 2
Fore
SplineSet
365.723632812 729.6875 m 1
 634.278320312 729.6875 l 1
 634.278320312 461.133789062 l 1
 365.723632812 461.133789062 l 1
 365.723632812 729.6875 l 1
661.1328125 165.723632812 m 1
 661.1328125 434.27734375 l 1
 929.6875 434.27734375 l 1
 929.6875 165.723632812 l 1
 661.1328125 165.723632812 l 1
661.1328125 -129.686523438 m 1
 661.1328125 138.8671875 l 1
 929.6875 138.8671875 l 1
 929.6875 -129.686523438 l 1
 661.1328125 -129.686523438 l 1
70.3134765625 165.723632812 m 1
 70.3134765625 434.27734375 l 1
 338.8671875 434.27734375 l 1
 338.8671875 165.723632812 l 1
 70.3134765625 165.723632812 l 1
70.3134765625 -129.686523438 m 1
 70.3134765625 138.8671875 l 1
 338.8671875 138.8671875 l 1
 338.8671875 -129.686523438 l 1
 70.3134765625 -129.686523438 l 1
365.723632812 165.723632812 m 1
 365.723632812 434.27734375 l 1
 634.278320312 434.27734375 l 1
 634.278320312 165.723632812 l 1
 365.723632812 165.723632812 l 1
365.723632812 -129.686523438 m 1
 365.723632812 138.8671875 l 1
 634.278320312 138.8671875 l 1
 634.278320312 -129.686523438 l 1
 365.723632812 -129.686523438 l 1
70.3134765625 461.1328125 m 1
 70.3134765625 729.6875 l 1
 338.8671875 729.6875 l 1
 338.8671875 461.1328125 l 1
 70.3134765625 461.1328125 l 1
EndSplineSet
Validated: 524289
EndChar

StartChar: A
Encoding: 65 65 21
Width: 1000
VWidth: 0
Flags: HW
LayerCount: 2
Fore
SplineSet
365.723632812 729.6875 m 1
 634.278320312 729.6875 l 1
 634.278320312 461.133789062 l 1
 365.723632812 461.133789062 l 1
 365.723632812 729.6875 l 1
661.1328125 165.723632812 m 1
 661.1328125 434.27734375 l 1
 929.6875 434.27734375 l 1
 929.6875 165.723632812 l 1
 661.1328125 165.723632812 l 1
661.1328125 -129.686523438 m 1
 661.1328125 138.8671875 l 1
 929.6875 138.8671875 l 1
 929.6875 -129.686523438 l 1
 661.1328125 -129.686523438 l 1
70.3134765625 165.723632812 m 1
 70.3134765625 434.27734375 l 1
 338.8671875 434.27734375 l 1
 338.8671875 165.723632812 l 1
 70.3134765625 165.723632812 l 1
70.3134765625 -129.686523438 m 1
 70.3134765625 138.8671875 l 1
 338.8671875 138.8671875 l 1
 338.8671875 -129.686523438 l 1
 70.3134765625 -129.686523438 l 1
365.723632812 165.723632812 m 1
 365.723632812 434.27734375 l 1
 634.278320312 434.27734375 l 1
 634.278320312 165.723632812 l 1
 365.723632812 165.723632812 l 1
EndSplineSet
Validated: 524289
EndChar

StartChar: at
Encoding: 64 64 22
Width: 1000
VWidth: 0
Flags: HW
LayerCount: 2
Fore
SplineSet
365.723632812 729.6875 m 1
 634.278320312 729.6875 l 1
 634.278320312 461.133789062 l 1
 365.723632812 461.133789062 l 1
 365.723632812 729.6875 l 1
661.1328125 -129.686523438 m 1
 661.1328125 138.8671875 l 1
 929.6875 138.8671875 l 1
 929.6875 -129.686523438 l 1
 661.1328125 -129.686523438 l 1
70.3134765625 165.723632812 m 1
 70.3134765625 434.27734375 l 1
 338.8671875 434.27734375 l 1
 338.8671875 165.723632812 l 1
 70.3134765625 165.723632812 l 1
70.3134765625 -129.686523438 m 1
 70.3134765625 138.8671875 l 1
 338.8671875 138.8671875 l 1
 338.8671875 -129.686523438 l 1
 70.3134765625 -129.686523438 l 1
661.1328125 461.1328125 m 1
 661.1328125 729.6875 l 1
 929.6875 729.6875 l 1
 929.6875 461.1328125 l 1
 661.1328125 461.1328125 l 1
EndSplineSet
Validated: 524289
EndChar

StartChar: question
Encoding: 63 63 23
Width: 1000
VWidth: 0
Flags: HW
LayerCount: 2
Fore
SplineSet
365.723632812 729.6875 m 1
 634.278320312 729.6875 l 1
 634.278320312 461.133789062 l 1
 365.723632812 461.133789062 l 1
 365.723632812 729.6875 l 1
661.1328125 165.723632812 m 1
 661.1328125 434.27734375 l 1
 929.6875 434.27734375 l 1
 929.6875 165.723632812 l 1
 661.1328125 165.723632812 l 1
365.723632812 165.723632812 m 1
 365.723632812 434.27734375 l 1
 634.278320312 434.27734375 l 1
 634.278320312 165.723632812 l 1
 365.723632812 165.723632812 l 1
365.723632812 -129.686523438 m 1
 365.723632812 138.8671875 l 1
 634.278320312 138.8671875 l 1
 634.278320312 -129.686523438 l 1
 365.723632812 -129.686523438 l 1
661.1328125 461.1328125 m 1
 661.1328125 729.6875 l 1
 929.6875 729.6875 l 1
 929.6875 461.1328125 l 1
 661.1328125 461.1328125 l 1
70.3134765625 461.1328125 m 1
 70.3134765625 729.6875 l 1
 338.8671875 729.6875 l 1
 338.8671875 461.1328125 l 1
 70.3134765625 461.1328125 l 1
EndSplineSet
Validated: 524289
EndChar

StartChar: greater
Encoding: 62 62 24
Width: 1000
VWidth: 0
Flags: HW
LayerCount: 2
Fore
SplineSet
365.723632812 729.6875 m 1
 634.278320312 729.6875 l 1
 634.278320312 461.133789062 l 1
 365.723632812 461.133789062 l 1
 365.723632812 729.6875 l 1
661.1328125 165.723632812 m 1
 661.1328125 434.27734375 l 1
 929.6875 434.27734375 l 1
 929.6875 165.723632812 l 1
 661.1328125 165.723632812 l 1
365.723632812 -129.686523438 m 1
 365.723632812 138.8671875 l 1
 634.278320312 138.8671875 l 1
 634.278320312 -129.686523438 l 1
 365.723632812 -129.686523438 l 1
EndSplineSet
Validated: 524289
EndChar

StartChar: equal
Encoding: 61 61 25
Width: 1000
VWidth: 0
Flags: HW
LayerCount: 2
Fore
SplineSet
365.723632812 729.6875 m 1
 634.278320312 729.6875 l 1
 634.278320312 461.133789062 l 1
 365.723632812 461.133789062 l 1
 365.723632812 729.6875 l 1
661.1328125 -129.686523438 m 1
 661.1328125 138.8671875 l 1
 929.6875 138.8671875 l 1
 929.6875 -129.686523438 l 1
 661.1328125 -129.686523438 l 1
70.3134765625 -129.686523438 m 1
 70.3134765625 138.8671875 l 1
 338.8671875 138.8671875 l 1
 338.8671875 -129.686523438 l 1
 70.3134765625 -129.686523438 l 1
365.723632812 -129.686523438 m 1
 365.723632812 138.8671875 l 1
 634.278320312 138.8671875 l 1
 634.278320312 -129.686523438 l 1
 365.723632812 -129.686523438 l 1
661.1328125 461.1328125 m 1
 661.1328125 729.6875 l 1
 929.6875 729.6875 l 1
 929.6875 461.1328125 l 1
 661.1328125 461.1328125 l 1
70.3134765625 461.1328125 m 1
 70.3134765625 729.6875 l 1
 338.8671875 729.6875 l 1
 338.8671875 461.1328125 l 1
 70.3134765625 461.1328125 l 1
EndSplineSet
Validated: 524289
EndChar

StartChar: less
Encoding: 60 60 26
Width: 1000
VWidth: 0
Flags: HW
LayerCount: 2
Fore
SplineSet
365.723632812 729.6875 m 1
 634.278320312 729.6875 l 1
 634.278320312 461.133789062 l 1
 365.723632812 461.133789062 l 1
 365.723632812 729.6875 l 1
70.3134765625 165.723632812 m 1
 70.3134765625 434.27734375 l 1
 338.8671875 434.27734375 l 1
 338.8671875 165.723632812 l 1
 70.3134765625 165.723632812 l 1
365.723632812 -129.686523438 m 1
 365.723632812 138.8671875 l 1
 634.278320312 138.8671875 l 1
 634.278320312 -129.686523438 l 1
 365.723632812 -129.686523438 l 1
EndSplineSet
Validated: 524289
EndChar

StartChar: semicolon
Encoding: 59 59 27
Width: 1000
VWidth: 0
Flags: HW
LayerCount: 2
Fore
SplineSet
365.723632812 729.6875 m 1
 634.278320312 729.6875 l 1
 634.278320312 461.133789062 l 1
 365.723632812 461.133789062 l 1
 365.723632812 729.6875 l 1
70.3134765625 -129.686523438 m 1
 70.3134765625 138.8671875 l 1
 338.8671875 138.8671875 l 1
 338.8671875 -129.686523438 l 1
 70.3134765625 -129.686523438 l 1
365.723632812 -129.686523438 m 1
 365.723632812 138.8671875 l 1
 634.278320312 138.8671875 l 1
 634.278320312 -129.686523438 l 1
 365.723632812 -129.686523438 l 1
EndSplineSet
Validated: 524289
EndChar

StartChar: colon
Encoding: 58 58 28
Width: 1000
VWidth: 0
Flags: HW
LayerCount: 2
Fore
SplineSet
365.723632812 729.6875 m 1
 634.278320312 729.6875 l 1
 634.278320312 461.133789062 l 1
 365.723632812 461.133789062 l 1
 365.723632812 729.6875 l 1
365.723632812 -129.686523438 m 1
 365.723632812 138.8671875 l 1
 634.278320312 138.8671875 l 1
 634.278320312 -129.686523438 l 1
 365.723632812 -129.686523438 l 1
EndSplineSet
Validated: 524289
EndChar

StartChar: nine
Encoding: 57 57 29
Width: 1000
VWidth: 0
Flags: HW
LayerCount: 2
Fore
SplineSet
365.723632812 729.6875 m 1
 634.278320312 729.6875 l 1
 634.278320312 461.133789062 l 1
 365.723632812 461.133789062 l 1
 365.723632812 729.6875 l 1
661.1328125 165.723632812 m 1
 661.1328125 434.27734375 l 1
 929.6875 434.27734375 l 1
 929.6875 165.723632812 l 1
 661.1328125 165.723632812 l 1
661.1328125 -129.686523438 m 1
 661.1328125 138.8671875 l 1
 929.6875 138.8671875 l 1
 929.6875 -129.686523438 l 1
 661.1328125 -129.686523438 l 1
70.3134765625 165.723632812 m 1
 70.3134765625 434.27734375 l 1
 338.8671875 434.27734375 l 1
 338.8671875 165.723632812 l 1
 70.3134765625 165.723632812 l 1
365.723632812 165.723632812 m 1
 365.723632812 434.27734375 l 1
 634.278320312 434.27734375 l 1
 634.278320312 165.723632812 l 1
 365.723632812 165.723632812 l 1
661.1328125 461.1328125 m 1
 661.1328125 729.6875 l 1
 929.6875 729.6875 l 1
 929.6875 461.1328125 l 1
 661.1328125 461.1328125 l 1
70.3134765625 461.1328125 m 1
 70.3134765625 729.6875 l 1
 338.8671875 729.6875 l 1
 338.8671875 461.1328125 l 1
 70.3134765625 461.1328125 l 1
EndSplineSet
Validated: 524289
EndChar

StartChar: eight
Encoding: 56 56 30
Width: 1000
VWidth: 0
Flags: HW
LayerCount: 2
Fore
SplineSet
365.723632812 729.6875 m 1
 634.278320312 729.6875 l 1
 634.278320312 461.133789062 l 1
 365.723632812 461.133789062 l 1
 365.723632812 729.6875 l 1
661.1328125 165.723632812 m 1
 661.1328125 434.27734375 l 1
 929.6875 434.27734375 l 1
 929.6875 165.723632812 l 1
 661.1328125 165.723632812 l 1
70.3134765625 165.723632812 m 1
 70.3134765625 434.27734375 l 1
 338.8671875 434.27734375 l 1
 338.8671875 165.723632812 l 1
 70.3134765625 165.723632812 l 1
70.3134765625 -129.686523438 m 1
 70.3134765625 138.8671875 l 1
 338.8671875 138.8671875 l 1
 338.8671875 -129.686523438 l 1
 70.3134765625 -129.686523438 l 1
365.723632812 165.723632812 m 1
 365.723632812 434.27734375 l 1
 634.278320312 434.27734375 l 1
 634.278320312 165.723632812 l 1
 365.723632812 165.723632812 l 1
365.723632812 -129.686523438 m 1
 365.723632812 138.8671875 l 1
 634.278320312 138.8671875 l 1
 634.278320312 -129.686523438 l 1
 365.723632812 -129.686523438 l 1
661.1328125 461.1328125 m 1
 661.1328125 729.6875 l 1
 929.6875 729.6875 l 1
 929.6875 461.1328125 l 1
 661.1328125 461.1328125 l 1
EndSplineSet
Validated: 524289
EndChar

StartChar: seven
Encoding: 55 55 31
Width: 1000
VWidth: 0
Flags: HW
LayerCount: 2
Fore
SplineSet
365.723632812 729.6875 m 1
 634.278320312 729.6875 l 1
 634.278320312 461.133789062 l 1
 365.723632812 461.133789062 l 1
 365.723632812 729.6875 l 1
661.1328125 165.723632812 m 1
 661.1328125 434.27734375 l 1
 929.6875 434.27734375 l 1
 929.6875 165.723632812 l 1
 661.1328125 165.723632812 l 1
365.723632812 -129.686523438 m 1
 365.723632812 138.8671875 l 1
 634.278320312 138.8671875 l 1
 634.278320312 -129.686523438 l 1
 365.723632812 -129.686523438 l 1
661.1328125 461.1328125 m 1
 661.1328125 729.6875 l 1
 929.6875 729.6875 l 1
 929.6875 461.1328125 l 1
 661.1328125 461.1328125 l 1
70.3134765625 461.1328125 m 1
 70.3134765625 729.6875 l 1
 338.8671875 729.6875 l 1
 338.8671875 461.1328125 l 1
 70.3134765625 461.1328125 l 1
EndSplineSet
Validated: 524289
EndChar

StartChar: six
Encoding: 54 54 32
Width: 1000
VWidth: 0
Flags: HW
LayerCount: 2
Fore
SplineSet
661.1328125 165.723632812 m 1
 661.1328125 434.27734375 l 1
 929.6875 434.27734375 l 1
 929.6875 165.723632812 l 1
 661.1328125 165.723632812 l 1
661.1328125 -129.686523438 m 1
 661.1328125 138.8671875 l 1
 929.6875 138.8671875 l 1
 929.6875 -129.686523438 l 1
 661.1328125 -129.686523438 l 1
70.3134765625 165.723632812 m 1
 70.3134765625 434.27734375 l 1
 338.8671875 434.27734375 l 1
 338.8671875 165.723632812 l 1
 70.3134765625 165.723632812 l 1
70.3134765625 -129.686523438 m 1
 70.3134765625 138.8671875 l 1
 338.8671875 138.8671875 l 1
 338.8671875 -129.686523438 l 1
 70.3134765625 -129.686523438 l 1
365.723632812 165.723632812 m 1
 365.723632812 434.27734375 l 1
 634.278320312 434.27734375 l 1
 634.278320312 165.723632812 l 1
 365.723632812 165.723632812 l 1
365.723632812 -129.686523438 m 1
 365.723632812 138.8671875 l 1
 634.278320312 138.8671875 l 1
 634.278320312 -129.686523438 l 1
 365.723632812 -129.686523438 l 1
70.3134765625 461.1328125 m 1
 70.3134765625 729.6875 l 1
 338.8671875 729.6875 l 1
 338.8671875 461.1328125 l 1
 70.3134765625 461.1328125 l 1
EndSplineSet
Validated: 524289
EndChar

StartChar: five
Encoding: 53 53 33
Width: 1000
VWidth: 0
Flags: HW
LayerCount: 2
Fore
SplineSet
365.723632812 729.6875 m 1
 634.278320312 729.6875 l 1
 634.278320312 461.133789062 l 1
 365.723632812 461.133789062 l 1
 365.723632812 729.6875 l 1
70.3134765625 165.723632812 m 1
 70.3134765625 434.27734375 l 1
 338.8671875 434.27734375 l 1
 338.8671875 165.723632812 l 1
 70.3134765625 165.723632812 l 1
70.3134765625 -129.686523438 m 1
 70.3134765625 138.8671875 l 1
 338.8671875 138.8671875 l 1
 338.8671875 -129.686523438 l 1
 70.3134765625 -129.686523438 l 1
365.723632812 165.723632812 m 1
 365.723632812 434.27734375 l 1
 634.278320312 434.27734375 l 1
 634.278320312 165.723632812 l 1
 365.723632812 165.723632812 l 1
365.723632812 -129.686523438 m 1
 365.723632812 138.8671875 l 1
 634.278320312 138.8671875 l 1
 634.278320312 -129.686523438 l 1
 365.723632812 -129.686523438 l 1
661.1328125 461.1328125 m 1
 661.1328125 729.6875 l 1
 929.6875 729.6875 l 1
 929.6875 461.1328125 l 1
 661.1328125 461.1328125 l 1
EndSplineSet
Validated: 524289
EndChar

StartChar: four
Encoding: 52 52 34
Width: 1000
VWidth: 0
Flags: HW
LayerCount: 2
Fore
SplineSet
661.1328125 165.723632812 m 1
 661.1328125 434.27734375 l 1
 929.6875 434.27734375 l 1
 929.6875 165.723632812 l 1
 661.1328125 165.723632812 l 1
661.1328125 -129.686523438 m 1
 661.1328125 138.8671875 l 1
 929.6875 138.8671875 l 1
 929.6875 -129.686523438 l 1
 661.1328125 -129.686523438 l 1
70.3134765625 165.723632812 m 1
 70.3134765625 434.27734375 l 1
 338.8671875 434.27734375 l 1
 338.8671875 165.723632812 l 1
 70.3134765625 165.723632812 l 1
365.723632812 165.723632812 m 1
 365.723632812 434.27734375 l 1
 634.278320312 434.27734375 l 1
 634.278320312 165.723632812 l 1
 365.723632812 165.723632812 l 1
661.1328125 461.1328125 m 1
 661.1328125 729.6875 l 1
 929.6875 729.6875 l 1
 929.6875 461.1328125 l 1
 661.1328125 461.1328125 l 1
70.3134765625 461.1328125 m 1
 70.3134765625 729.6875 l 1
 338.8671875 729.6875 l 1
 338.8671875 461.1328125 l 1
 70.3134765625 461.1328125 l 1
EndSplineSet
Validated: 524289
EndChar

StartChar: three
Encoding: 51 51 35
Width: 1000
VWidth: 0
Flags: HW
LayerCount: 2
Fore
SplineSet
365.723632812 729.6875 m 1
 634.278320312 729.6875 l 1
 634.278320312 461.133789062 l 1
 365.723632812 461.133789062 l 1
 365.723632812 729.6875 l 1
661.1328125 165.723632812 m 1
 661.1328125 434.27734375 l 1
 929.6875 434.27734375 l 1
 929.6875 165.723632812 l 1
 661.1328125 165.723632812 l 1
661.1328125 -129.686523438 m 1
 661.1328125 138.8671875 l 1
 929.6875 138.8671875 l 1
 929.6875 -129.686523438 l 1
 661.1328125 -129.686523438 l 1
70.3134765625 -129.686523438 m 1
 70.3134765625 138.8671875 l 1
 338.8671875 138.8671875 l 1
 338.8671875 -129.686523438 l 1
 70.3134765625 -129.686523438 l 1
365.723632812 165.723632812 m 1
 365.723632812 434.27734375 l 1
 634.278320312 434.27734375 l 1
 634.278320312 165.723632812 l 1
 365.723632812 165.723632812 l 1
365.723632812 -129.686523438 m 1
 365.723632812 138.8671875 l 1
 634.278320312 138.8671875 l 1
 634.278320312 -129.686523438 l 1
 365.723632812 -129.686523438 l 1
661.1328125 461.1328125 m 1
 661.1328125 729.6875 l 1
 929.6875 729.6875 l 1
 929.6875 461.1328125 l 1
 661.1328125 461.1328125 l 1
70.3134765625 461.1328125 m 1
 70.3134765625 729.6875 l 1
 338.8671875 729.6875 l 1
 338.8671875 461.1328125 l 1
 70.3134765625 461.1328125 l 1
EndSplineSet
Validated: 524289
EndChar

StartChar: two
Encoding: 50 50 36
Width: 1000
VWidth: 0
Flags: HW
LayerCount: 2
Fore
SplineSet
365.723632812 729.6875 m 1
 634.278320312 729.6875 l 1
 634.278320312 461.133789062 l 1
 365.723632812 461.133789062 l 1
 365.723632812 729.6875 l 1
661.1328125 -129.686523438 m 1
 661.1328125 138.8671875 l 1
 929.6875 138.8671875 l 1
 929.6875 -129.686523438 l 1
 661.1328125 -129.686523438 l 1
70.3134765625 -129.686523438 m 1
 70.3134765625 138.8671875 l 1
 338.8671875 138.8671875 l 1
 338.8671875 -129.686523438 l 1
 70.3134765625 -129.686523438 l 1
365.723632812 165.723632812 m 1
 365.723632812 434.27734375 l 1
 634.278320312 434.27734375 l 1
 634.278320312 165.723632812 l 1
 365.723632812 165.723632812 l 1
70.3134765625 461.1328125 m 1
 70.3134765625 729.6875 l 1
 338.8671875 729.6875 l 1
 338.8671875 461.1328125 l 1
 70.3134765625 461.1328125 l 1
EndSplineSet
Validated: 524289
EndChar

StartChar: one
Encoding: 49 49 37
Width: 1000
VWidth: 0
Flags: HW
LayerCount: 2
Fore
SplineSet
365.723632812 729.6875 m 1
 634.278320312 729.6875 l 1
 634.278320312 461.133789062 l 1
 365.723632812 461.133789062 l 1
 365.723632812 729.6875 l 1
365.723632812 165.723632812 m 1
 365.723632812 434.27734375 l 1
 634.278320312 434.27734375 l 1
 634.278320312 165.723632812 l 1
 365.723632812 165.723632812 l 1
365.723632812 -129.686523438 m 1
 365.723632812 138.8671875 l 1
 634.278320312 138.8671875 l 1
 634.278320312 -129.686523438 l 1
 365.723632812 -129.686523438 l 1
70.3134765625 461.1328125 m 1
 70.3134765625 729.6875 l 1
 338.8671875 729.6875 l 1
 338.8671875 461.1328125 l 1
 70.3134765625 461.1328125 l 1
EndSplineSet
Validated: 524289
EndChar

StartChar: zero
Encoding: 48 48 38
Width: 1000
VWidth: 0
Flags: HW
LayerCount: 2
Fore
SplineSet
365.723632812 729.6875 m 1
 634.278320312 729.6875 l 1
 634.278320312 461.133789062 l 1
 365.723632812 461.133789062 l 1
 365.723632812 729.6875 l 1
661.1328125 165.723632812 m 1
 661.1328125 434.27734375 l 1
 929.6875 434.27734375 l 1
 929.6875 165.723632812 l 1
 661.1328125 165.723632812 l 1
70.3134765625 165.723632812 m 1
 70.3134765625 434.27734375 l 1
 338.8671875 434.27734375 l 1
 338.8671875 165.723632812 l 1
 70.3134765625 165.723632812 l 1
365.723632812 -129.686523438 m 1
 365.723632812 138.8671875 l 1
 634.278320312 138.8671875 l 1
 634.278320312 -129.686523438 l 1
 365.723632812 -129.686523438 l 1
EndSplineSet
Validated: 524289
EndChar

StartChar: H
Encoding: 72 72 39
Width: 1000
VWidth: 0
Flags: HW
LayerCount: 2
Fore
SplineSet
661.1328125 165.723632812 m 1
 661.1328125 434.27734375 l 1
 929.6875 434.27734375 l 1
 929.6875 165.723632812 l 1
 661.1328125 165.723632812 l 1
661.1328125 -129.686523438 m 1
 661.1328125 138.8671875 l 1
 929.6875 138.8671875 l 1
 929.6875 -129.686523438 l 1
 661.1328125 -129.686523438 l 1
70.3134765625 165.723632812 m 1
 70.3134765625 434.27734375 l 1
 338.8671875 434.27734375 l 1
 338.8671875 165.723632812 l 1
 70.3134765625 165.723632812 l 1
70.3134765625 -129.686523438 m 1
 70.3134765625 138.8671875 l 1
 338.8671875 138.8671875 l 1
 338.8671875 -129.686523438 l 1
 70.3134765625 -129.686523438 l 1
365.723632812 165.723632812 m 1
 365.723632812 434.27734375 l 1
 634.278320312 434.27734375 l 1
 634.278320312 165.723632812 l 1
 365.723632812 165.723632812 l 1
661.1328125 461.1328125 m 1
 661.1328125 729.6875 l 1
 929.6875 729.6875 l 1
 929.6875 461.1328125 l 1
 661.1328125 461.1328125 l 1
70.3134765625 461.1328125 m 1
 70.3134765625 729.6875 l 1
 338.8671875 729.6875 l 1
 338.8671875 461.1328125 l 1
 70.3134765625 461.1328125 l 1
EndSplineSet
Validated: 524289
EndChar

StartChar: I
Encoding: 73 73 40
Width: 1000
VWidth: 0
Flags: HW
LayerCount: 2
Fore
SplineSet
365.723632812 729.6875 m 1
 634.278320312 729.6875 l 1
 634.278320312 461.133789062 l 1
 365.723632812 461.133789062 l 1
 365.723632812 729.6875 l 1
661.1328125 -129.686523438 m 1
 661.1328125 138.8671875 l 1
 929.6875 138.8671875 l 1
 929.6875 -129.686523438 l 1
 661.1328125 -129.686523438 l 1
70.3134765625 -129.686523438 m 1
 70.3134765625 138.8671875 l 1
 338.8671875 138.8671875 l 1
 338.8671875 -129.686523438 l 1
 70.3134765625 -129.686523438 l 1
365.723632812 165.723632812 m 1
 365.723632812 434.27734375 l 1
 634.278320312 434.27734375 l 1
 634.278320312 165.723632812 l 1
 365.723632812 165.723632812 l 1
365.723632812 -129.686523438 m 1
 365.723632812 138.8671875 l 1
 634.278320312 138.8671875 l 1
 634.278320312 -129.686523438 l 1
 365.723632812 -129.686523438 l 1
661.1328125 461.1328125 m 1
 661.1328125 729.6875 l 1
 929.6875 729.6875 l 1
 929.6875 461.1328125 l 1
 661.1328125 461.1328125 l 1
70.3134765625 461.1328125 m 1
 70.3134765625 729.6875 l 1
 338.8671875 729.6875 l 1
 338.8671875 461.1328125 l 1
 70.3134765625 461.1328125 l 1
EndSplineSet
Validated: 524289
EndChar

StartChar: J
Encoding: 74 74 41
Width: 1000
VWidth: 0
Flags: HW
LayerCount: 2
Fore
SplineSet
661.1328125 165.723632812 m 1
 661.1328125 434.27734375 l 1
 929.6875 434.27734375 l 1
 929.6875 165.723632812 l 1
 661.1328125 165.723632812 l 1
661.1328125 -129.686523438 m 1
 661.1328125 138.8671875 l 1
 929.6875 138.8671875 l 1
 929.6875 -129.686523438 l 1
 661.1328125 -129.686523438 l 1
70.3134765625 165.723632812 m 1
 70.3134765625 434.27734375 l 1
 338.8671875 434.27734375 l 1
 338.8671875 165.723632812 l 1
 70.3134765625 165.723632812 l 1
70.3134765625 -129.686523438 m 1
 70.3134765625 138.8671875 l 1
 338.8671875 138.8671875 l 1
 338.8671875 -129.686523438 l 1
 70.3134765625 -129.686523438 l 1
365.723632812 -129.686523438 m 1
 365.723632812 138.8671875 l 1
 634.278320312 138.8671875 l 1
 634.278320312 -129.686523438 l 1
 365.723632812 -129.686523438 l 1
661.1328125 461.1328125 m 1
 661.1328125 729.6875 l 1
 929.6875 729.6875 l 1
 929.6875 461.1328125 l 1
 661.1328125 461.1328125 l 1
EndSplineSet
Validated: 524289
EndChar

StartChar: K
Encoding: 75 75 42
Width: 1000
VWidth: 0
Flags: HW
LayerCount: 2
Fore
SplineSet
661.1328125 -129.686523438 m 1
 661.1328125 138.8671875 l 1
 929.6875 138.8671875 l 1
 929.6875 -129.686523438 l 1
 661.1328125 -129.686523438 l 1
70.3134765625 165.723632812 m 1
 70.3134765625 434.27734375 l 1
 338.8671875 434.27734375 l 1
 338.8671875 165.723632812 l 1
 70.3134765625 165.723632812 l 1
70.3134765625 -129.686523438 m 1
 70.3134765625 138.8671875 l 1
 338.8671875 138.8671875 l 1
 338.8671875 -129.686523438 l 1
 70.3134765625 -129.686523438 l 1
365.723632812 165.723632812 m 1
 365.723632812 434.27734375 l 1
 634.278320312 434.27734375 l 1
 634.278320312 165.723632812 l 1
 365.723632812 165.723632812 l 1
661.1328125 461.1328125 m 1
 661.1328125 729.6875 l 1
 929.6875 729.6875 l 1
 929.6875 461.1328125 l 1
 661.1328125 461.1328125 l 1
70.3134765625 461.1328125 m 1
 70.3134765625 729.6875 l 1
 338.8671875 729.6875 l 1
 338.8671875 461.1328125 l 1
 70.3134765625 461.1328125 l 1
EndSplineSet
Validated: 524289
EndChar

StartChar: d
Encoding: 100 100 43
Width: 1000
VWidth: 0
Flags: HW
LayerCount: 2
Fore
SplineSet
661.1328125 165.723632812 m 1
 661.1328125 434.27734375 l 1
 929.6875 434.27734375 l 1
 929.6875 165.723632812 l 1
 661.1328125 165.723632812 l 1
661.1328125 -129.686523438 m 1
 661.1328125 138.8671875 l 1
 929.6875 138.8671875 l 1
 929.6875 -129.686523438 l 1
 661.1328125 -129.686523438 l 1
365.723632812 165.723632812 m 1
 365.723632812 434.27734375 l 1
 634.278320312 434.27734375 l 1
 634.278320312 165.723632812 l 1
 365.723632812 165.723632812 l 1
365.723632812 -129.686523438 m 1
 365.723632812 138.8671875 l 1
 634.278320312 138.8671875 l 1
 634.278320312 -129.686523438 l 1
 365.723632812 -129.686523438 l 1
661.1328125 461.1328125 m 1
 661.1328125 729.6875 l 1
 929.6875 729.6875 l 1
 929.6875 461.1328125 l 1
 661.1328125 461.1328125 l 1
EndSplineSet
Validated: 524289
EndChar

StartChar: L
Encoding: 76 76 44
Width: 1000
VWidth: 0
Flags: HW
LayerCount: 2
Fore
SplineSet
661.1328125 -129.686523438 m 1
 661.1328125 138.8671875 l 1
 929.6875 138.8671875 l 1
 929.6875 -129.686523438 l 1
 661.1328125 -129.686523438 l 1
70.3134765625 165.723632812 m 1
 70.3134765625 434.27734375 l 1
 338.8671875 434.27734375 l 1
 338.8671875 165.723632812 l 1
 70.3134765625 165.723632812 l 1
70.3134765625 -129.686523438 m 1
 70.3134765625 138.8671875 l 1
 338.8671875 138.8671875 l 1
 338.8671875 -129.686523438 l 1
 70.3134765625 -129.686523438 l 1
365.723632812 -129.686523438 m 1
 365.723632812 138.8671875 l 1
 634.278320312 138.8671875 l 1
 634.278320312 -129.686523438 l 1
 365.723632812 -129.686523438 l 1
70.3134765625 461.1328125 m 1
 70.3134765625 729.6875 l 1
 338.8671875 729.6875 l 1
 338.8671875 461.1328125 l 1
 70.3134765625 461.1328125 l 1
EndSplineSet
Validated: 524289
EndChar

StartChar: M
Encoding: 77 77 45
Width: 1000
VWidth: 0
Flags: HW
LayerCount: 2
Fore
SplineSet
365.723632812 729.6875 m 1
 634.278320312 729.6875 l 1
 634.278320312 461.133789062 l 1
 365.723632812 461.133789062 l 1
 365.723632812 729.6875 l 1
661.1328125 165.723632812 m 1
 661.1328125 434.27734375 l 1
 929.6875 434.27734375 l 1
 929.6875 165.723632812 l 1
 661.1328125 165.723632812 l 1
661.1328125 -129.686523438 m 1
 661.1328125 138.8671875 l 1
 929.6875 138.8671875 l 1
 929.6875 -129.686523438 l 1
 661.1328125 -129.686523438 l 1
70.3134765625 165.723632812 m 1
 70.3134765625 434.27734375 l 1
 338.8671875 434.27734375 l 1
 338.8671875 165.723632812 l 1
 70.3134765625 165.723632812 l 1
70.3134765625 -129.686523438 m 1
 70.3134765625 138.8671875 l 1
 338.8671875 138.8671875 l 1
 338.8671875 -129.686523438 l 1
 70.3134765625 -129.686523438 l 1
365.723632812 165.723632812 m 1
 365.723632812 434.27734375 l 1
 634.278320312 434.27734375 l 1
 634.278320312 165.723632812 l 1
 365.723632812 165.723632812 l 1
661.1328125 461.1328125 m 1
 661.1328125 729.6875 l 1
 929.6875 729.6875 l 1
 929.6875 461.1328125 l 1
 661.1328125 461.1328125 l 1
70.3134765625 461.1328125 m 1
 70.3134765625 729.6875 l 1
 338.8671875 729.6875 l 1
 338.8671875 461.1328125 l 1
 70.3134765625 461.1328125 l 1
EndSplineSet
Validated: 524289
EndChar

StartChar: N
Encoding: 78 78 46
Width: 1000
VWidth: 0
Flags: HW
LayerCount: 2
Fore
SplineSet
365.723632812 729.6875 m 1
 634.278320312 729.6875 l 1
 634.278320312 461.133789062 l 1
 365.723632812 461.133789062 l 1
 365.723632812 729.6875 l 1
661.1328125 165.723632812 m 1
 661.1328125 434.27734375 l 1
 929.6875 434.27734375 l 1
 929.6875 165.723632812 l 1
 661.1328125 165.723632812 l 1
661.1328125 -129.686523438 m 1
 661.1328125 138.8671875 l 1
 929.6875 138.8671875 l 1
 929.6875 -129.686523438 l 1
 661.1328125 -129.686523438 l 1
70.3134765625 165.723632812 m 1
 70.3134765625 434.27734375 l 1
 338.8671875 434.27734375 l 1
 338.8671875 165.723632812 l 1
 70.3134765625 165.723632812 l 1
70.3134765625 -129.686523438 m 1
 70.3134765625 138.8671875 l 1
 338.8671875 138.8671875 l 1
 338.8671875 -129.686523438 l 1
 70.3134765625 -129.686523438 l 1
661.1328125 461.1328125 m 1
 661.1328125 729.6875 l 1
 929.6875 729.6875 l 1
 929.6875 461.1328125 l 1
 661.1328125 461.1328125 l 1
70.3134765625 461.1328125 m 1
 70.3134765625 729.6875 l 1
 338.8671875 729.6875 l 1
 338.8671875 461.1328125 l 1
 70.3134765625 461.1328125 l 1
EndSplineSet
Validated: 524289
EndChar

StartChar: O
Encoding: 79 79 47
Width: 1000
VWidth: 0
Flags: HW
LayerCount: 2
Fore
SplineSet
365.723632812 729.6875 m 1
 634.278320312 729.6875 l 1
 634.278320312 461.133789062 l 1
 365.723632812 461.133789062 l 1
 365.723632812 729.6875 l 1
661.1328125 165.723632812 m 1
 661.1328125 434.27734375 l 1
 929.6875 434.27734375 l 1
 929.6875 165.723632812 l 1
 661.1328125 165.723632812 l 1
661.1328125 -129.686523438 m 1
 661.1328125 138.8671875 l 1
 929.6875 138.8671875 l 1
 929.6875 -129.686523438 l 1
 661.1328125 -129.686523438 l 1
70.3134765625 165.723632812 m 1
 70.3134765625 434.27734375 l 1
 338.8671875 434.27734375 l 1
 338.8671875 165.723632812 l 1
 70.3134765625 165.723632812 l 1
70.3134765625 -129.686523438 m 1
 70.3134765625 138.8671875 l 1
 338.8671875 138.8671875 l 1
 338.8671875 -129.686523438 l 1
 70.3134765625 -129.686523438 l 1
365.723632812 -129.686523438 m 1
 365.723632812 138.8671875 l 1
 634.278320312 138.8671875 l 1
 634.278320312 -129.686523438 l 1
 365.723632812 -129.686523438 l 1
661.1328125 461.1328125 m 1
 661.1328125 729.6875 l 1
 929.6875 729.6875 l 1
 929.6875 461.1328125 l 1
 661.1328125 461.1328125 l 1
70.3134765625 461.1328125 m 1
 70.3134765625 729.6875 l 1
 338.8671875 729.6875 l 1
 338.8671875 461.1328125 l 1
 70.3134765625 461.1328125 l 1
EndSplineSet
Validated: 524289
EndChar

StartChar: P
Encoding: 80 80 48
Width: 1000
VWidth: 0
Flags: HW
LayerCount: 2
Fore
SplineSet
365.723632812 729.6875 m 1
 634.278320312 729.6875 l 1
 634.278320312 461.133789062 l 1
 365.723632812 461.133789062 l 1
 365.723632812 729.6875 l 1
661.1328125 165.723632812 m 1
 661.1328125 434.27734375 l 1
 929.6875 434.27734375 l 1
 929.6875 165.723632812 l 1
 661.1328125 165.723632812 l 1
70.3134765625 165.723632812 m 1
 70.3134765625 434.27734375 l 1
 338.8671875 434.27734375 l 1
 338.8671875 165.723632812 l 1
 70.3134765625 165.723632812 l 1
70.3134765625 -129.686523438 m 1
 70.3134765625 138.8671875 l 1
 338.8671875 138.8671875 l 1
 338.8671875 -129.686523438 l 1
 70.3134765625 -129.686523438 l 1
365.723632812 165.723632812 m 1
 365.723632812 434.27734375 l 1
 634.278320312 434.27734375 l 1
 634.278320312 165.723632812 l 1
 365.723632812 165.723632812 l 1
661.1328125 461.1328125 m 1
 661.1328125 729.6875 l 1
 929.6875 729.6875 l 1
 929.6875 461.1328125 l 1
 661.1328125 461.1328125 l 1
70.3134765625 461.1328125 m 1
 70.3134765625 729.6875 l 1
 338.8671875 729.6875 l 1
 338.8671875 461.1328125 l 1
 70.3134765625 461.1328125 l 1
EndSplineSet
Validated: 524289
EndChar

StartChar: Q
Encoding: 81 81 49
Width: 1000
VWidth: 0
Flags: HW
LayerCount: 2
Fore
SplineSet
365.723632812 729.6875 m 1
 634.278320312 729.6875 l 1
 634.278320312 461.133789062 l 1
 365.723632812 461.133789062 l 1
 365.723632812 729.6875 l 1
661.1328125 165.723632812 m 1
 661.1328125 434.27734375 l 1
 929.6875 434.27734375 l 1
 929.6875 165.723632812 l 1
 661.1328125 165.723632812 l 1
70.3134765625 165.723632812 m 1
 70.3134765625 434.27734375 l 1
 338.8671875 434.27734375 l 1
 338.8671875 165.723632812 l 1
 70.3134765625 165.723632812 l 1
70.3134765625 -129.686523438 m 1
 70.3134765625 138.8671875 l 1
 338.8671875 138.8671875 l 1
 338.8671875 -129.686523438 l 1
 70.3134765625 -129.686523438 l 1
365.723632812 -129.686523438 m 1
 365.723632812 138.8671875 l 1
 634.278320312 138.8671875 l 1
 634.278320312 -129.686523438 l 1
 365.723632812 -129.686523438 l 1
661.1328125 461.1328125 m 1
 661.1328125 729.6875 l 1
 929.6875 729.6875 l 1
 929.6875 461.1328125 l 1
 661.1328125 461.1328125 l 1
70.3134765625 461.1328125 m 1
 70.3134765625 729.6875 l 1
 338.8671875 729.6875 l 1
 338.8671875 461.1328125 l 1
 70.3134765625 461.1328125 l 1
EndSplineSet
Validated: 524289
EndChar

StartChar: R
Encoding: 82 82 50
Width: 1000
VWidth: 0
Flags: HW
LayerCount: 2
Fore
SplineSet
365.723632812 729.6875 m 1
 634.278320312 729.6875 l 1
 634.278320312 461.133789062 l 1
 365.723632812 461.133789062 l 1
 365.723632812 729.6875 l 1
661.1328125 -129.686523438 m 1
 661.1328125 138.8671875 l 1
 929.6875 138.8671875 l 1
 929.6875 -129.686523438 l 1
 661.1328125 -129.686523438 l 1
70.3134765625 165.723632812 m 1
 70.3134765625 434.27734375 l 1
 338.8671875 434.27734375 l 1
 338.8671875 165.723632812 l 1
 70.3134765625 165.723632812 l 1
70.3134765625 -129.686523438 m 1
 70.3134765625 138.8671875 l 1
 338.8671875 138.8671875 l 1
 338.8671875 -129.686523438 l 1
 70.3134765625 -129.686523438 l 1
365.723632812 165.723632812 m 1
 365.723632812 434.27734375 l 1
 634.278320312 434.27734375 l 1
 634.278320312 165.723632812 l 1
 365.723632812 165.723632812 l 1
661.1328125 461.1328125 m 1
 661.1328125 729.6875 l 1
 929.6875 729.6875 l 1
 929.6875 461.1328125 l 1
 661.1328125 461.1328125 l 1
70.3134765625 461.1328125 m 1
 70.3134765625 729.6875 l 1
 338.8671875 729.6875 l 1
 338.8671875 461.1328125 l 1
 70.3134765625 461.1328125 l 1
EndSplineSet
Validated: 524289
EndChar

StartChar: S
Encoding: 83 83 51
Width: 1000
VWidth: 0
Flags: HW
LayerCount: 2
Fore
SplineSet
365.723632812 729.6875 m 1
 634.278320312 729.6875 l 1
 634.278320312 461.133789062 l 1
 365.723632812 461.133789062 l 1
 365.723632812 729.6875 l 1
70.3134765625 -129.686523438 m 1
 70.3134765625 138.8671875 l 1
 338.8671875 138.8671875 l 1
 338.8671875 -129.686523438 l 1
 70.3134765625 -129.686523438 l 1
365.723632812 165.723632812 m 1
 365.723632812 434.27734375 l 1
 634.278320312 434.27734375 l 1
 634.278320312 165.723632812 l 1
 365.723632812 165.723632812 l 1
365.723632812 -129.686523438 m 1
 365.723632812 138.8671875 l 1
 634.278320312 138.8671875 l 1
 634.278320312 -129.686523438 l 1
 365.723632812 -129.686523438 l 1
661.1328125 461.1328125 m 1
 661.1328125 729.6875 l 1
 929.6875 729.6875 l 1
 929.6875 461.1328125 l 1
 661.1328125 461.1328125 l 1
EndSplineSet
Validated: 524289
EndChar

StartChar: T
Encoding: 84 84 52
Width: 1000
VWidth: 0
Flags: HW
LayerCount: 2
Fore
SplineSet
365.723632812 729.6875 m 1
 634.278320312 729.6875 l 1
 634.278320312 461.133789062 l 1
 365.723632812 461.133789062 l 1
 365.723632812 729.6875 l 1
365.723632812 165.723632812 m 1
 365.723632812 434.27734375 l 1
 634.278320312 434.27734375 l 1
 634.278320312 165.723632812 l 1
 365.723632812 165.723632812 l 1
365.723632812 -129.686523438 m 1
 365.723632812 138.8671875 l 1
 634.278320312 138.8671875 l 1
 634.278320312 -129.686523438 l 1
 365.723632812 -129.686523438 l 1
661.1328125 461.1328125 m 1
 661.1328125 729.6875 l 1
 929.6875 729.6875 l 1
 929.6875 461.1328125 l 1
 661.1328125 461.1328125 l 1
70.3134765625 461.1328125 m 1
 70.3134765625 729.6875 l 1
 338.8671875 729.6875 l 1
 338.8671875 461.1328125 l 1
 70.3134765625 461.1328125 l 1
EndSplineSet
Validated: 524289
EndChar

StartChar: U
Encoding: 85 85 53
Width: 1000
VWidth: 0
Flags: HW
LayerCount: 2
Fore
SplineSet
661.1328125 165.723632812 m 1
 661.1328125 434.27734375 l 1
 929.6875 434.27734375 l 1
 929.6875 165.723632812 l 1
 661.1328125 165.723632812 l 1
661.1328125 -129.686523438 m 1
 661.1328125 138.8671875 l 1
 929.6875 138.8671875 l 1
 929.6875 -129.686523438 l 1
 661.1328125 -129.686523438 l 1
70.3134765625 165.723632812 m 1
 70.3134765625 434.27734375 l 1
 338.8671875 434.27734375 l 1
 338.8671875 165.723632812 l 1
 70.3134765625 165.723632812 l 1
70.3134765625 -129.686523438 m 1
 70.3134765625 138.8671875 l 1
 338.8671875 138.8671875 l 1
 338.8671875 -129.686523438 l 1
 70.3134765625 -129.686523438 l 1
365.723632812 -129.686523438 m 1
 365.723632812 138.8671875 l 1
 634.278320312 138.8671875 l 1
 634.278320312 -129.686523438 l 1
 365.723632812 -129.686523438 l 1
661.1328125 461.1328125 m 1
 661.1328125 729.6875 l 1
 929.6875 729.6875 l 1
 929.6875 461.1328125 l 1
 661.1328125 461.1328125 l 1
70.3134765625 461.1328125 m 1
 70.3134765625 729.6875 l 1
 338.8671875 729.6875 l 1
 338.8671875 461.1328125 l 1
 70.3134765625 461.1328125 l 1
EndSplineSet
Validated: 524289
EndChar

StartChar: W
Encoding: 87 87 54
Width: 1000
VWidth: 0
Flags: HW
LayerCount: 2
Fore
SplineSet
661.1328125 165.723632812 m 1
 661.1328125 434.27734375 l 1
 929.6875 434.27734375 l 1
 929.6875 165.723632812 l 1
 661.1328125 165.723632812 l 1
661.1328125 -129.686523438 m 1
 661.1328125 138.8671875 l 1
 929.6875 138.8671875 l 1
 929.6875 -129.686523438 l 1
 661.1328125 -129.686523438 l 1
70.3134765625 165.723632812 m 1
 70.3134765625 434.27734375 l 1
 338.8671875 434.27734375 l 1
 338.8671875 165.723632812 l 1
 70.3134765625 165.723632812 l 1
70.3134765625 -129.686523438 m 1
 70.3134765625 138.8671875 l 1
 338.8671875 138.8671875 l 1
 338.8671875 -129.686523438 l 1
 70.3134765625 -129.686523438 l 1
365.723632812 165.723632812 m 1
 365.723632812 434.27734375 l 1
 634.278320312 434.27734375 l 1
 634.278320312 165.723632812 l 1
 365.723632812 165.723632812 l 1
365.723632812 -129.686523438 m 1
 365.723632812 138.8671875 l 1
 634.278320312 138.8671875 l 1
 634.278320312 -129.686523438 l 1
 365.723632812 -129.686523438 l 1
661.1328125 461.1328125 m 1
 661.1328125 729.6875 l 1
 929.6875 729.6875 l 1
 929.6875 461.1328125 l 1
 661.1328125 461.1328125 l 1
70.3134765625 461.1328125 m 1
 70.3134765625 729.6875 l 1
 338.8671875 729.6875 l 1
 338.8671875 461.1328125 l 1
 70.3134765625 461.1328125 l 1
EndSplineSet
Validated: 524289
EndChar

StartChar: X
Encoding: 88 88 55
Width: 1000
VWidth: 0
Flags: HW
LayerCount: 2
Fore
SplineSet
661.1328125 -129.686523438 m 1
 661.1328125 138.8671875 l 1
 929.6875 138.8671875 l 1
 929.6875 -129.686523438 l 1
 661.1328125 -129.686523438 l 1
70.3134765625 -129.686523438 m 1
 70.3134765625 138.8671875 l 1
 338.8671875 138.8671875 l 1
 338.8671875 -129.686523438 l 1
 70.3134765625 -129.686523438 l 1
365.723632812 165.723632812 m 1
 365.723632812 434.27734375 l 1
 634.278320312 434.27734375 l 1
 634.278320312 165.723632812 l 1
 365.723632812 165.723632812 l 1
661.1328125 461.1328125 m 1
 661.1328125 729.6875 l 1
 929.6875 729.6875 l 1
 929.6875 461.1328125 l 1
 661.1328125 461.1328125 l 1
70.3134765625 461.1328125 m 1
 70.3134765625 729.6875 l 1
 338.8671875 729.6875 l 1
 338.8671875 461.1328125 l 1
 70.3134765625 461.1328125 l 1
EndSplineSet
Validated: 524289
EndChar

StartChar: V
Encoding: 86 86 56
Width: 1000
VWidth: 0
Flags: HW
LayerCount: 2
Fore
SplineSet
661.1328125 165.723632812 m 1
 661.1328125 434.27734375 l 1
 929.6875 434.27734375 l 1
 929.6875 165.723632812 l 1
 661.1328125 165.723632812 l 1
70.3134765625 165.723632812 m 1
 70.3134765625 434.27734375 l 1
 338.8671875 434.27734375 l 1
 338.8671875 165.723632812 l 1
 70.3134765625 165.723632812 l 1
365.723632812 165.723632812 m 1
 365.723632812 434.27734375 l 1
 634.278320312 434.27734375 l 1
 634.278320312 165.723632812 l 1
 365.723632812 165.723632812 l 1
365.723632812 -129.686523438 m 1
 365.723632812 138.8671875 l 1
 634.278320312 138.8671875 l 1
 634.278320312 -129.686523438 l 1
 365.723632812 -129.686523438 l 1
661.1328125 461.1328125 m 1
 661.1328125 729.6875 l 1
 929.6875 729.6875 l 1
 929.6875 461.1328125 l 1
 661.1328125 461.1328125 l 1
70.3134765625 461.1328125 m 1
 70.3134765625 729.6875 l 1
 338.8671875 729.6875 l 1
 338.8671875 461.1328125 l 1
 70.3134765625 461.1328125 l 1
EndSplineSet
Validated: 524289
EndChar

StartChar: Y
Encoding: 89 89 57
Width: 1000
VWidth: 0
Flags: HW
LayerCount: 2
Fore
SplineSet
661.1328125 434.27734375 m 1
 929.6875 434.27734375 l 1025
365.723632812 165.723632812 m 1
 365.723632812 434.27734375 l 1
 634.278320312 434.27734375 l 1
 634.278320312 165.723632812 l 1
 365.723632812 165.723632812 l 1
365.723632812 -129.686523438 m 1
 365.723632812 138.8671875 l 1
 634.278320312 138.8671875 l 1
 634.278320312 -129.686523438 l 1
 365.723632812 -129.686523438 l 1
661.1328125 461.1328125 m 1
 661.1328125 729.6875 l 1
 929.6875 729.6875 l 1
 929.6875 461.1328125 l 1
 661.1328125 461.1328125 l 1
70.3134765625 461.1328125 m 1
 70.3134765625 729.6875 l 1
 338.8671875 729.6875 l 1
 338.8671875 461.1328125 l 1
 70.3134765625 461.1328125 l 1
EndSplineSet
Validated: 524291
EndChar

StartChar: Z
Encoding: 90 90 58
Width: 1000
VWidth: 0
Flags: HW
LayerCount: 2
Fore
SplineSet
365.723632812 729.6875 m 1
 634.278320312 729.6875 l 1
 634.278320312 461.133789062 l 1
 365.723632812 461.133789062 l 1
 365.723632812 729.6875 l 1
661.1328125 -129.686523438 m 1
 661.1328125 138.8671875 l 1
 929.6875 138.8671875 l 1
 929.6875 -129.686523438 l 1
 661.1328125 -129.686523438 l 1
365.723632812 165.723632812 m 1
 365.723632812 434.27734375 l 1
 634.278320312 434.27734375 l 1
 634.278320312 165.723632812 l 1
 365.723632812 165.723632812 l 1
365.723632812 -129.686523438 m 1
 365.723632812 138.8671875 l 1
 634.278320312 138.8671875 l 1
 634.278320312 -129.686523438 l 1
 365.723632812 -129.686523438 l 1
70.3134765625 461.1328125 m 1
 70.3134765625 729.6875 l 1
 338.8671875 729.6875 l 1
 338.8671875 461.1328125 l 1
 70.3134765625 461.1328125 l 1
EndSplineSet
Validated: 524289
EndChar

StartChar: bracketleft
Encoding: 91 91 59
Width: 1000
VWidth: 0
Flags: HW
LayerCount: 2
Fore
SplineSet
365.723632812 729.6875 m 1
 634.278320312 729.6875 l 1
 634.278320312 461.133789062 l 1
 365.723632812 461.133789062 l 1
 365.723632812 729.6875 l 1
70.3134765625 165.723632812 m 1
 70.3134765625 434.27734375 l 1
 338.8671875 434.27734375 l 1
 338.8671875 165.723632812 l 1
 70.3134765625 165.723632812 l 1
70.3134765625 -129.686523438 m 1
 70.3134765625 138.8671875 l 1
 338.8671875 138.8671875 l 1
 338.8671875 -129.686523438 l 1
 70.3134765625 -129.686523438 l 1
365.723632812 -129.686523438 m 1
 365.723632812 138.8671875 l 1
 634.278320312 138.8671875 l 1
 634.278320312 -129.686523438 l 1
 365.723632812 -129.686523438 l 1
70.3134765625 461.1328125 m 1
 70.3134765625 729.6875 l 1
 338.8671875 729.6875 l 1
 338.8671875 461.1328125 l 1
 70.3134765625 461.1328125 l 1
EndSplineSet
Validated: 524289
EndChar

StartChar: backslash
Encoding: 92 92 60
Width: 1000
VWidth: 0
Flags: HW
LayerCount: 2
Fore
SplineSet
661.1328125 -129.686523438 m 1
 661.1328125 138.8671875 l 1
 929.6875 138.8671875 l 1
 929.6875 -129.686523438 l 1
 661.1328125 -129.686523438 l 1
365.723632812 165.723632812 m 1
 365.723632812 434.27734375 l 1
 634.278320312 434.27734375 l 1
 634.278320312 165.723632812 l 1
 365.723632812 165.723632812 l 1
70.3134765625 461.1328125 m 1
 70.3134765625 729.6875 l 1
 338.8671875 729.6875 l 1
 338.8671875 461.1328125 l 1
 70.3134765625 461.1328125 l 1
EndSplineSet
Validated: 524289
EndChar

StartChar: bracketright
Encoding: 93 93 61
Width: 1000
VWidth: 0
Flags: HW
LayerCount: 2
Fore
SplineSet
365.723632812 729.6875 m 1
 634.278320312 729.6875 l 1
 634.278320312 461.133789062 l 1
 365.723632812 461.133789062 l 1
 365.723632812 729.6875 l 1
661.1328125 165.723632812 m 1
 661.1328125 434.27734375 l 1
 929.6875 434.27734375 l 1
 929.6875 165.723632812 l 1
 661.1328125 165.723632812 l 1
661.1328125 -129.686523438 m 1
 661.1328125 138.8671875 l 1
 929.6875 138.8671875 l 1
 929.6875 -129.686523438 l 1
 661.1328125 -129.686523438 l 1
365.723632812 -129.686523438 m 1
 365.723632812 138.8671875 l 1
 634.278320312 138.8671875 l 1
 634.278320312 -129.686523438 l 1
 365.723632812 -129.686523438 l 1
661.1328125 461.1328125 m 1
 661.1328125 729.6875 l 1
 929.6875 729.6875 l 1
 929.6875 461.1328125 l 1
 661.1328125 461.1328125 l 1
EndSplineSet
Validated: 524289
EndChar

StartChar: asciicircum
Encoding: 94 94 62
Width: 1000
VWidth: 0
Flags: HW
LayerCount: 2
Fore
SplineSet
365.723632812 729.6875 m 1
 634.278320312 729.6875 l 1
 634.278320312 461.133789062 l 1
 365.723632812 461.133789062 l 1
 365.723632812 729.6875 l 1
661.1328125 165.723632812 m 1
 661.1328125 434.27734375 l 1
 929.6875 434.27734375 l 1
 929.6875 165.723632812 l 1
 661.1328125 165.723632812 l 1
70.3134765625 165.723632812 m 1
 70.3134765625 434.27734375 l 1
 338.8671875 434.27734375 l 1
 338.8671875 165.723632812 l 1
 70.3134765625 165.723632812 l 1
EndSplineSet
Validated: 524289
EndChar

StartChar: underscore
Encoding: 95 95 63
Width: 1000
VWidth: 0
Flags: HW
LayerCount: 2
Fore
SplineSet
661.1328125 -129.686523438 m 1
 661.1328125 138.8671875 l 1
 929.6875 138.8671875 l 1
 929.6875 -129.686523438 l 1
 661.1328125 -129.686523438 l 1
70.3134765625 -129.686523438 m 1
 70.3134765625 138.8671875 l 1
 338.8671875 138.8671875 l 1
 338.8671875 -129.686523438 l 1
 70.3134765625 -129.686523438 l 1
365.723632812 -129.686523438 m 1
 365.723632812 138.8671875 l 1
 634.278320312 138.8671875 l 1
 634.278320312 -129.686523438 l 1
 365.723632812 -129.686523438 l 1
EndSplineSet
Validated: 524289
EndChar

StartChar: w
Encoding: 119 119 64
Width: 1000
VWidth: 0
Flags: HW
LayerCount: 2
Fore
SplineSet
661.1328125 165.723632812 m 1
 661.1328125 434.27734375 l 1
 929.6875 434.27734375 l 1
 929.6875 165.723632812 l 1
 661.1328125 165.723632812 l 1
661.1328125 -129.686523438 m 1
 661.1328125 138.8671875 l 1
 929.6875 138.8671875 l 1
 929.6875 -129.686523438 l 1
 661.1328125 -129.686523438 l 1
70.3134765625 165.723632812 m 1
 70.3134765625 434.27734375 l 1
 338.8671875 434.27734375 l 1
 338.8671875 165.723632812 l 1
 70.3134765625 165.723632812 l 1
70.3134765625 -129.686523438 m 1
 70.3134765625 138.8671875 l 1
 338.8671875 138.8671875 l 1
 338.8671875 -129.686523438 l 1
 70.3134765625 -129.686523438 l 1
365.723632812 -129.686523438 m 1
 365.723632812 138.8671875 l 1
 634.278320312 138.8671875 l 1
 634.278320312 -129.686523438 l 1
 365.723632812 -129.686523438 l 1
EndSplineSet
Validated: 524289
EndChar

StartChar: v
Encoding: 118 118 65
Width: 1000
VWidth: 0
Flags: HW
LayerCount: 2
Fore
SplineSet
661.1328125 165.723632812 m 1
 661.1328125 434.27734375 l 1
 929.6875 434.27734375 l 1
 929.6875 165.723632812 l 1
 661.1328125 165.723632812 l 1
70.3134765625 165.723632812 m 1
 70.3134765625 434.27734375 l 1
 338.8671875 434.27734375 l 1
 338.8671875 165.723632812 l 1
 70.3134765625 165.723632812 l 1
365.723632812 -129.686523438 m 1
 365.723632812 138.8671875 l 1
 634.278320312 138.8671875 l 1
 634.278320312 -129.686523438 l 1
 365.723632812 -129.686523438 l 1
EndSplineSet
Validated: 524289
EndChar

StartChar: u
Encoding: 117 117 66
Width: 1000
VWidth: 0
Flags: HW
LayerCount: 2
Fore
SplineSet
661.1328125 165.723632812 m 1
 661.1328125 434.27734375 l 1
 929.6875 434.27734375 l 1
 929.6875 165.723632812 l 1
 661.1328125 165.723632812 l 1
661.1328125 -129.686523438 m 1
 661.1328125 138.8671875 l 1
 929.6875 138.8671875 l 1
 929.6875 -129.686523438 l 1
 661.1328125 -129.686523438 l 1
70.3134765625 165.723632812 m 1
 70.3134765625 434.27734375 l 1
 338.8671875 434.27734375 l 1
 338.8671875 165.723632812 l 1
 70.3134765625 165.723632812 l 1
365.723632812 -129.686523438 m 1
 365.723632812 138.8671875 l 1
 634.278320312 138.8671875 l 1
 634.278320312 -129.686523438 l 1
 365.723632812 -129.686523438 l 1
EndSplineSet
Validated: 524289
EndChar

StartChar: t
Encoding: 116 116 67
Width: 1000
VWidth: 0
Flags: HW
LayerCount: 2
Fore
SplineSet
365.723632812 729.6875 m 1
 634.278320312 729.6875 l 1
 634.278320312 461.133789062 l 1
 365.723632812 461.133789062 l 1
 365.723632812 729.6875 l 1
929.6875 165.723632812 m 1
 661.1328125 165.723632812 l 1025
661.1328125 -129.686523438 m 1
 661.1328125 138.8671875 l 1
 929.6875 138.8671875 l 1
 929.6875 -129.686523438 l 1
 661.1328125 -129.686523438 l 1
70.3134765625 165.723632812 m 1
 70.3134765625 434.27734375 l 1
 338.8671875 434.27734375 l 1
 338.8671875 165.723632812 l 1
 70.3134765625 165.723632812 l 1
365.723632812 165.723632812 m 1
 365.723632812 434.27734375 l 1
 634.278320312 434.27734375 l 1
 634.278320312 165.723632812 l 1
 365.723632812 165.723632812 l 1
365.723632812 -129.686523438 m 1
 365.723632812 138.8671875 l 1
 634.278320312 138.8671875 l 1
 634.278320312 -129.686523438 l 1
 365.723632812 -129.686523438 l 1
EndSplineSet
Validated: 524291
EndChar

StartChar: s
Encoding: 115 115 68
Width: 1000
VWidth: 0
Flags: HW
LayerCount: 2
Fore
SplineSet
661.1328125 165.723632812 m 1
 661.1328125 434.27734375 l 1
 929.6875 434.27734375 l 1
 929.6875 165.723632812 l 1
 661.1328125 165.723632812 l 1
70.3134765625 -129.686523438 m 1
 70.3134765625 138.8671875 l 1
 338.8671875 138.8671875 l 1
 338.8671875 -129.686523438 l 1
 70.3134765625 -129.686523438 l 1
365.723632812 165.723632812 m 1
 365.723632812 434.27734375 l 1
 634.278320312 434.27734375 l 1
 634.278320312 165.723632812 l 1
 365.723632812 165.723632812 l 1
365.723632812 -129.686523438 m 1
 365.723632812 138.8671875 l 1
 634.278320312 138.8671875 l 1
 634.278320312 -129.686523438 l 1
 365.723632812 -129.686523438 l 1
EndSplineSet
Validated: 524289
EndChar

StartChar: r
Encoding: 114 114 69
Width: 1000
VWidth: 0
Flags: HW
LayerCount: 2
Fore
SplineSet
365.723632812 729.6875 m 1
 634.278320312 729.6875 l 1
 634.278320312 461.133789062 l 1
 365.723632812 461.133789062 l 1
 365.723632812 729.6875 l 1
70.3134765625 165.723632812 m 1
 70.3134765625 434.27734375 l 1
 338.8671875 434.27734375 l 1
 338.8671875 165.723632812 l 1
 70.3134765625 165.723632812 l 1
70.3134765625 -129.686523438 m 1
 70.3134765625 138.8671875 l 1
 338.8671875 138.8671875 l 1
 338.8671875 -129.686523438 l 1
 70.3134765625 -129.686523438 l 1
70.3134765625 461.1328125 m 1
 70.3134765625 729.6875 l 1
 338.8671875 729.6875 l 1
 338.8671875 461.1328125 l 1
 70.3134765625 461.1328125 l 1
EndSplineSet
Validated: 524289
EndChar

StartChar: q
Encoding: 113 113 70
Width: 1000
VWidth: 0
Flags: HW
LayerCount: 2
Fore
SplineSet
365.723632812 729.6875 m 1
 634.278320312 729.6875 l 1
 634.278320312 461.133789062 l 1
 365.723632812 461.133789062 l 1
 365.723632812 729.6875 l 1
661.1328125 165.723632812 m 1
 661.1328125 434.27734375 l 1
 929.6875 434.27734375 l 1
 929.6875 165.723632812 l 1
 661.1328125 165.723632812 l 1
661.1328125 -129.686523438 m 1
 661.1328125 138.8671875 l 1
 929.6875 138.8671875 l 1
 929.6875 -129.686523438 l 1
 661.1328125 -129.686523438 l 1
70.3134765625 165.723632812 m 1
 70.3134765625 434.27734375 l 1
 338.8671875 434.27734375 l 1
 338.8671875 165.723632812 l 1
 70.3134765625 165.723632812 l 1
365.723632812 165.723632812 m 1
 365.723632812 434.27734375 l 1
 634.278320312 434.27734375 l 1
 634.278320312 165.723632812 l 1
 365.723632812 165.723632812 l 1
661.1328125 461.1328125 m 1
 661.1328125 729.6875 l 1
 929.6875 729.6875 l 1
 929.6875 461.1328125 l 1
 661.1328125 461.1328125 l 1
EndSplineSet
Validated: 524289
EndChar

StartChar: p
Encoding: 112 112 71
Width: 1000
VWidth: 0
Flags: HW
LayerCount: 2
Fore
SplineSet
365.723632812 729.6875 m 1
 634.278320312 729.6875 l 1
 634.278320312 461.133789062 l 1
 365.723632812 461.133789062 l 1
 365.723632812 729.6875 l 1
661.1328125 165.723632812 m 1
 661.1328125 434.27734375 l 1
 929.6875 434.27734375 l 1
 929.6875 165.723632812 l 1
 661.1328125 165.723632812 l 1
70.3134765625 165.723632812 m 1
 70.3134765625 434.27734375 l 1
 338.8671875 434.27734375 l 1
 338.8671875 165.723632812 l 1
 70.3134765625 165.723632812 l 1
70.3134765625 -129.686523438 m 1
 70.3134765625 138.8671875 l 1
 338.8671875 138.8671875 l 1
 338.8671875 -129.686523438 l 1
 70.3134765625 -129.686523438 l 1
365.723632812 165.723632812 m 1
 365.723632812 434.27734375 l 1
 634.278320312 434.27734375 l 1
 634.278320312 165.723632812 l 1
 365.723632812 165.723632812 l 1
70.3134765625 461.1328125 m 1
 70.3134765625 729.6875 l 1
 338.8671875 729.6875 l 1
 338.8671875 461.1328125 l 1
 70.3134765625 461.1328125 l 1
EndSplineSet
Validated: 524289
EndChar

StartChar: o
Encoding: 111 111 72
Width: 1000
VWidth: 0
Flags: HW
LayerCount: 2
Fore
SplineSet
70.3134765625 165.723632812 m 1
 70.3134765625 434.27734375 l 1
 338.8671875 434.27734375 l 1
 338.8671875 165.723632812 l 1
 70.3134765625 165.723632812 l 1
70.3134765625 -129.686523438 m 1
 70.3134765625 138.8671875 l 1
 338.8671875 138.8671875 l 1
 338.8671875 -129.686523438 l 1
 70.3134765625 -129.686523438 l 1
365.723632812 165.723632812 m 1
 365.723632812 434.27734375 l 1
 634.278320312 434.27734375 l 1
 634.278320312 165.723632812 l 1
 365.723632812 165.723632812 l 1
365.723632812 -129.686523438 m 1
 365.723632812 138.8671875 l 1
 634.278320312 138.8671875 l 1
 634.278320312 -129.686523438 l 1
 365.723632812 -129.686523438 l 1
EndSplineSet
Validated: 524289
EndChar

StartChar: n
Encoding: 110 110 73
Width: 1000
VWidth: 0
Flags: HW
LayerCount: 2
Fore
SplineSet
661.1328125 165.723632812 m 1
 661.1328125 434.27734375 l 1
 929.6875 434.27734375 l 1
 929.6875 165.723632812 l 1
 661.1328125 165.723632812 l 1
661.1328125 -129.686523438 m 1
 661.1328125 138.8671875 l 1
 929.6875 138.8671875 l 1
 929.6875 -129.686523438 l 1
 661.1328125 -129.686523438 l 1
70.3134765625 165.723632812 m 1
 70.3134765625 434.27734375 l 1
 338.8671875 434.27734375 l 1
 338.8671875 165.723632812 l 1
 70.3134765625 165.723632812 l 1
70.3134765625 -129.686523438 m 1
 70.3134765625 138.8671875 l 1
 338.8671875 138.8671875 l 1
 338.8671875 -129.686523438 l 1
 70.3134765625 -129.686523438 l 1
365.723632812 165.723632812 m 1
 365.723632812 434.27734375 l 1
 634.278320312 434.27734375 l 1
 634.278320312 165.723632812 l 1
 365.723632812 165.723632812 l 1
EndSplineSet
Validated: 524289
EndChar

StartChar: m
Encoding: 109 109 74
Width: 1000
VWidth: 0
Flags: HW
LayerCount: 2
Fore
SplineSet
661.1328125 165.723632812 m 1
 661.1328125 434.27734375 l 1
 929.6875 434.27734375 l 1
 929.6875 165.723632812 l 1
 661.1328125 165.723632812 l 1
661.1328125 -129.686523438 m 1
 661.1328125 138.8671875 l 1
 929.6875 138.8671875 l 1
 929.6875 -129.686523438 l 1
 661.1328125 -129.686523438 l 1
70.3134765625 165.723632812 m 1
 70.3134765625 434.27734375 l 1
 338.8671875 434.27734375 l 1
 338.8671875 165.723632812 l 1
 70.3134765625 165.723632812 l 1
70.3134765625 -129.686523438 m 1
 70.3134765625 138.8671875 l 1
 338.8671875 138.8671875 l 1
 338.8671875 -129.686523438 l 1
 70.3134765625 -129.686523438 l 1
365.723632812 165.723632812 m 1
 365.723632812 434.27734375 l 1
 634.278320312 434.27734375 l 1
 634.278320312 165.723632812 l 1
 365.723632812 165.723632812 l 1
365.723632812 -129.686523438 m 1
 365.723632812 138.8671875 l 1
 634.278320312 138.8671875 l 1
 634.278320312 -129.686523438 l 1
 365.723632812 -129.686523438 l 1
EndSplineSet
Validated: 524289
EndChar

StartChar: l
Encoding: 108 108 75
Width: 1000
VWidth: 0
Flags: HW
LayerCount: 2
Fore
SplineSet
70.3134765625 165.723632812 m 1
 70.3134765625 434.27734375 l 1
 338.8671875 434.27734375 l 1
 338.8671875 165.723632812 l 1
 70.3134765625 165.723632812 l 1
70.3134765625 -129.686523438 m 1
 70.3134765625 138.8671875 l 1
 338.8671875 138.8671875 l 1
 338.8671875 -129.686523438 l 1
 70.3134765625 -129.686523438 l 1
365.723632812 -129.686523438 m 1
 365.723632812 138.8671875 l 1
 634.278320312 138.8671875 l 1
 634.278320312 -129.686523438 l 1
 365.723632812 -129.686523438 l 1
70.3134765625 461.1328125 m 1
 70.3134765625 729.6875 l 1
 338.8671875 729.6875 l 1
 338.8671875 461.1328125 l 1
 70.3134765625 461.1328125 l 1
EndSplineSet
Validated: 524289
EndChar

StartChar: k
Encoding: 107 107 76
Width: 1000
VWidth: 0
Flags: HW
LayerCount: 2
Fore
SplineSet
661.1328125 -129.686523438 m 1
 661.1328125 138.8671875 l 1
 929.6875 138.8671875 l 1
 929.6875 -129.686523438 l 1
 661.1328125 -129.686523438 l 1
70.3134765625 165.723632812 m 1
 70.3134765625 434.27734375 l 1
 338.8671875 434.27734375 l 1
 338.8671875 165.723632812 l 1
 70.3134765625 165.723632812 l 1
70.3134765625 -129.686523438 m 1
 70.3134765625 138.8671875 l 1
 338.8671875 138.8671875 l 1
 338.8671875 -129.686523438 l 1
 70.3134765625 -129.686523438 l 1
365.723632812 165.723632812 m 1
 365.723632812 434.27734375 l 1
 634.278320312 434.27734375 l 1
 634.278320312 165.723632812 l 1
 365.723632812 165.723632812 l 1
70.3134765625 461.1328125 m 1
 70.3134765625 729.6875 l 1
 338.8671875 729.6875 l 1
 338.8671875 461.1328125 l 1
 70.3134765625 461.1328125 l 1
EndSplineSet
Validated: 524289
EndChar

StartChar: j
Encoding: 106 106 77
Width: 1000
VWidth: 0
Flags: HW
LayerCount: 2
Fore
SplineSet
661.1328125 165.723632812 m 1
 661.1328125 434.27734375 l 1
 929.6875 434.27734375 l 1
 929.6875 165.723632812 l 1
 661.1328125 165.723632812 l 1
661.1328125 -129.686523438 m 1
 661.1328125 138.8671875 l 1
 929.6875 138.8671875 l 1
 929.6875 -129.686523438 l 1
 661.1328125 -129.686523438 l 1
365.723632812 -129.686523438 m 1
 365.723632812 138.8671875 l 1
 634.278320312 138.8671875 l 1
 634.278320312 -129.686523438 l 1
 365.723632812 -129.686523438 l 1
661.1328125 461.1328125 m 1
 661.1328125 729.6875 l 1
 929.6875 729.6875 l 1
 929.6875 461.1328125 l 1
 661.1328125 461.1328125 l 1
70.3134765625 461.1328125 m 1
 70.3134765625 729.6875 l 1
 338.8671875 729.6875 l 1
 338.8671875 461.1328125 l 1
 70.3134765625 461.1328125 l 1
EndSplineSet
Validated: 524289
EndChar

StartChar: i
Encoding: 105 105 78
Width: 1000
VWidth: 0
Flags: HW
LayerCount: 2
Fore
SplineSet
661.1328125 165.723632812 m 1
 661.1328125 434.27734375 l 1
 929.6875 434.27734375 l 1
 929.6875 165.723632812 l 1
 661.1328125 165.723632812 l 1
661.1328125 -129.686523438 m 1
 661.1328125 138.8671875 l 1
 929.6875 138.8671875 l 1
 929.6875 -129.686523438 l 1
 661.1328125 -129.686523438 l 1
661.1328125 461.1328125 m 1
 661.1328125 729.6875 l 1
 929.6875 729.6875 l 1
 929.6875 461.1328125 l 1
 661.1328125 461.1328125 l 1
70.3134765625 461.1328125 m 1
 70.3134765625 729.6875 l 1
 338.8671875 729.6875 l 1
 338.8671875 461.1328125 l 1
 70.3134765625 461.1328125 l 1
EndSplineSet
Validated: 524289
EndChar

StartChar: h
Encoding: 104 104 79
Width: 1000
VWidth: 0
Flags: HW
LayerCount: 2
Fore
SplineSet
661.1328125 165.723632812 m 1
 661.1328125 434.27734375 l 1
 929.6875 434.27734375 l 1
 929.6875 165.723632812 l 1
 661.1328125 165.723632812 l 1
661.1328125 -129.686523438 m 1
 661.1328125 138.8671875 l 1
 929.6875 138.8671875 l 1
 929.6875 -129.686523438 l 1
 661.1328125 -129.686523438 l 1
70.3134765625 165.723632812 m 1
 70.3134765625 434.27734375 l 1
 338.8671875 434.27734375 l 1
 338.8671875 165.723632812 l 1
 70.3134765625 165.723632812 l 1
70.3134765625 -129.686523438 m 1
 70.3134765625 138.8671875 l 1
 338.8671875 138.8671875 l 1
 338.8671875 -129.686523438 l 1
 70.3134765625 -129.686523438 l 1
365.723632812 165.723632812 m 1
 365.723632812 434.27734375 l 1
 634.278320312 434.27734375 l 1
 634.278320312 165.723632812 l 1
 365.723632812 165.723632812 l 1
70.3134765625 461.1328125 m 1
 70.3134765625 729.6875 l 1
 338.8671875 729.6875 l 1
 338.8671875 461.1328125 l 1
 70.3134765625 461.1328125 l 1
EndSplineSet
Validated: 524289
EndChar

StartChar: g
Encoding: 103 103 80
Width: 1000
VWidth: 0
Flags: HW
LayerCount: 2
Fore
SplineSet
365.723632812 729.6875 m 1
 634.278320312 729.6875 l 1
 634.278320312 461.133789062 l 1
 365.723632812 461.133789062 l 1
 365.723632812 729.6875 l 1
661.1328125 165.723632812 m 1
 661.1328125 434.27734375 l 1
 929.6875 434.27734375 l 1
 929.6875 165.723632812 l 1
 661.1328125 165.723632812 l 1
661.1328125 -129.686523438 m 1
 661.1328125 138.8671875 l 1
 929.6875 138.8671875 l 1
 929.6875 -129.686523438 l 1
 661.1328125 -129.686523438 l 1
70.3134765625 -129.686523438 m 1
 70.3134765625 138.8671875 l 1
 338.8671875 138.8671875 l 1
 338.8671875 -129.686523438 l 1
 70.3134765625 -129.686523438 l 1
365.723632812 165.723632812 m 1
 365.723632812 434.27734375 l 1
 634.278320312 434.27734375 l 1
 634.278320312 165.723632812 l 1
 365.723632812 165.723632812 l 1
365.723632812 -129.686523438 m 1
 365.723632812 138.8671875 l 1
 634.278320312 138.8671875 l 1
 634.278320312 -129.686523438 l 1
 365.723632812 -129.686523438 l 1
661.1328125 461.1328125 m 1
 661.1328125 729.6875 l 1
 929.6875 729.6875 l 1
 929.6875 461.1328125 l 1
 661.1328125 461.1328125 l 1
EndSplineSet
Validated: 524289
EndChar

StartChar: f
Encoding: 102 102 81
Width: 1000
VWidth: 0
Flags: HW
LayerCount: 2
Fore
SplineSet
365.723632812 729.6875 m 1
 634.278320312 729.6875 l 1
 634.278320312 461.133789062 l 1
 365.723632812 461.133789062 l 1
 365.723632812 729.6875 l 1
70.3134765625 165.723632812 m 1
 70.3134765625 434.27734375 l 1
 338.8671875 434.27734375 l 1
 338.8671875 165.723632812 l 1
 70.3134765625 165.723632812 l 1
70.3134765625 -129.686523438 m 1
 70.3134765625 138.8671875 l 1
 338.8671875 138.8671875 l 1
 338.8671875 -129.686523438 l 1
 70.3134765625 -129.686523438 l 1
365.723632812 165.723632812 m 1
 365.723632812 434.27734375 l 1
 634.278320312 434.27734375 l 1
 634.278320312 165.723632812 l 1
 365.723632812 165.723632812 l 1
70.3134765625 461.1328125 m 1
 70.3134765625 729.6875 l 1
 338.8671875 729.6875 l 1
 338.8671875 461.1328125 l 1
 70.3134765625 461.1328125 l 1
EndSplineSet
Validated: 524289
EndChar

StartChar: e
Encoding: 101 101 82
Width: 1000
VWidth: 0
Flags: HW
LayerCount: 2
Fore
SplineSet
661.1328125 -129.686523438 m 1
 661.1328125 138.8671875 l 1
 929.6875 138.8671875 l 1
 929.6875 -129.686523438 l 1
 661.1328125 -129.686523438 l 1
70.3134765625 165.723632812 m 1
 70.3134765625 434.27734375 l 1
 338.8671875 434.27734375 l 1
 338.8671875 165.723632812 l 1
 70.3134765625 165.723632812 l 1
70.3134765625 -129.686523438 m 1
 70.3134765625 138.8671875 l 1
 338.8671875 138.8671875 l 1
 338.8671875 -129.686523438 l 1
 70.3134765625 -129.686523438 l 1
365.723632812 165.723632812 m 1
 365.723632812 434.27734375 l 1
 634.278320312 434.27734375 l 1
 634.278320312 165.723632812 l 1
 365.723632812 165.723632812 l 1
365.723632812 -129.686523438 m 1
 365.723632812 138.8671875 l 1
 634.278320312 138.8671875 l 1
 634.278320312 -129.686523438 l 1
 365.723632812 -129.686523438 l 1
EndSplineSet
Validated: 524289
EndChar

StartChar: c
Encoding: 99 99 83
Width: 1000
VWidth: 0
Flags: HW
LayerCount: 2
Fore
SplineSet
365.723632812 729.6875 m 1
 634.278320312 729.6875 l 1
 634.278320312 461.133789062 l 1
 365.723632812 461.133789062 l 1
 365.723632812 729.6875 l 1
661.1328125 -129.686523438 m 1
 661.1328125 138.8671875 l 1
 929.6875 138.8671875 l 1
 929.6875 -129.686523438 l 1
 661.1328125 -129.686523438 l 1
70.3134765625 165.723632812 m 1
 70.3134765625 434.27734375 l 1
 338.8671875 434.27734375 l 1
 338.8671875 165.723632812 l 1
 70.3134765625 165.723632812 l 1
70.3134765625 -129.686523438 m 1
 70.3134765625 138.8671875 l 1
 338.8671875 138.8671875 l 1
 338.8671875 -129.686523438 l 1
 70.3134765625 -129.686523438 l 1
365.723632812 -129.686523438 m 1
 365.723632812 138.8671875 l 1
 634.278320312 138.8671875 l 1
 634.278320312 -129.686523438 l 1
 365.723632812 -129.686523438 l 1
70.3134765625 461.1328125 m 1
 70.3134765625 729.6875 l 1
 338.8671875 729.6875 l 1
 338.8671875 461.1328125 l 1
 70.3134765625 461.1328125 l 1
EndSplineSet
Validated: 524289
EndChar

StartChar: b
Encoding: 98 98 84
Width: 1000
VWidth: 0
Flags: HW
LayerCount: 2
Fore
SplineSet
70.3134765625 165.723632812 m 1
 70.3134765625 434.27734375 l 1
 338.8671875 434.27734375 l 1
 338.8671875 165.723632812 l 1
 70.3134765625 165.723632812 l 1
70.3134765625 -129.686523438 m 1
 70.3134765625 138.8671875 l 1
 338.8671875 138.8671875 l 1
 338.8671875 -129.686523438 l 1
 70.3134765625 -129.686523438 l 1
365.723632812 165.723632812 m 1
 365.723632812 434.27734375 l 1
 634.278320312 434.27734375 l 1
 634.278320312 165.723632812 l 1
 365.723632812 165.723632812 l 1
365.723632812 -129.686523438 m 1
 365.723632812 138.8671875 l 1
 634.278320312 138.8671875 l 1
 634.278320312 -129.686523438 l 1
 365.723632812 -129.686523438 l 1
70.3134765625 461.1328125 m 1
 70.3134765625 729.6875 l 1
 338.8671875 729.6875 l 1
 338.8671875 461.1328125 l 1
 70.3134765625 461.1328125 l 1
EndSplineSet
Validated: 524289
EndChar

StartChar: a
Encoding: 97 97 85
Width: 1000
VWidth: 0
Flags: HW
LayerCount: 2
Fore
SplineSet
365.723632812 729.6875 m 1
 634.278320312 729.6875 l 1
 634.278320312 461.133789062 l 1
 365.723632812 461.133789062 l 1
 365.723632812 729.6875 l 1
661.1328125 165.723632812 m 1
 661.1328125 434.27734375 l 1
 929.6875 434.27734375 l 1
 929.6875 165.723632812 l 1
 661.1328125 165.723632812 l 1
661.1328125 -129.686523438 m 1
 661.1328125 138.8671875 l 1
 929.6875 138.8671875 l 1
 929.6875 -129.686523438 l 1
 661.1328125 -129.686523438 l 1
70.3134765625 165.723632812 m 1
 70.3134765625 434.27734375 l 1
 338.8671875 434.27734375 l 1
 338.8671875 165.723632812 l 1
 70.3134765625 165.723632812 l 1
365.723632812 -129.686523438 m 1
 365.723632812 138.8671875 l 1
 634.278320312 138.8671875 l 1
 634.278320312 -129.686523438 l 1
 365.723632812 -129.686523438 l 1
661.1328125 461.1328125 m 1
 661.1328125 729.6875 l 1
 929.6875 729.6875 l 1
 929.6875 461.1328125 l 1
 661.1328125 461.1328125 l 1
EndSplineSet
Validated: 524289
EndChar

StartChar: grave
Encoding: 96 96 86
Width: 1000
VWidth: 0
Flags: HW
LayerCount: 2
Fore
SplineSet
365.723632812 165.723632812 m 1
 365.723632812 434.27734375 l 1
 634.278320312 434.27734375 l 1
 634.278320312 165.723632812 l 1
 365.723632812 165.723632812 l 1
70.3134765625 461.1328125 m 1
 70.3134765625 729.6875 l 1
 338.8671875 729.6875 l 1
 338.8671875 461.1328125 l 1
 70.3134765625 461.1328125 l 1
EndSplineSet
Validated: 524289
EndChar

StartChar: x
Encoding: 120 120 87
Width: 1000
VWidth: 0
Flags: HW
LayerCount: 2
Fore
SplineSet
365.723632812 729.6875 m 1
 634.278320312 729.6875 l 1
 634.278320312 461.133789062 l 1
 365.723632812 461.133789062 l 1
 365.723632812 729.6875 l 1
661.1328125 -129.686523438 m 1
 661.1328125 138.8671875 l 1
 929.6875 138.8671875 l 1
 929.6875 -129.686523438 l 1
 661.1328125 -129.686523438 l 1
70.3134765625 -129.686523438 m 1
 70.3134765625 138.8671875 l 1
 338.8671875 138.8671875 l 1
 338.8671875 -129.686523438 l 1
 70.3134765625 -129.686523438 l 1
365.723632812 165.723632812 m 1
 365.723632812 434.27734375 l 1
 634.278320312 434.27734375 l 1
 634.278320312 165.723632812 l 1
 365.723632812 165.723632812 l 1
661.1328125 461.1328125 m 1
 661.1328125 729.6875 l 1
 929.6875 729.6875 l 1
 929.6875 461.1328125 l 1
 661.1328125 461.1328125 l 1
70.3134765625 461.1328125 m 1
 70.3134765625 729.6875 l 1
 338.8671875 729.6875 l 1
 338.8671875 461.1328125 l 1
 70.3134765625 461.1328125 l 1
EndSplineSet
Validated: 524289
EndChar

StartChar: y
Encoding: 121 121 88
Width: 1000
VWidth: 0
Flags: HW
LayerCount: 2
Fore
SplineSet
70.3134765625 -129.686523438 m 1
 70.3134765625 138.8671875 l 1
 338.8671875 138.8671875 l 1
 338.8671875 -129.686523438 l 1
 70.3134765625 -129.686523438 l 1
365.723632812 165.723632812 m 1
 365.723632812 434.27734375 l 1
 634.278320312 434.27734375 l 1
 634.278320312 165.723632812 l 1
 365.723632812 165.723632812 l 1
661.1328125 461.1328125 m 1
 661.1328125 729.6875 l 1
 929.6875 729.6875 l 1
 929.6875 461.1328125 l 1
 661.1328125 461.1328125 l 1
70.3134765625 461.1328125 m 1
 70.3134765625 729.6875 l 1
 338.8671875 729.6875 l 1
 338.8671875 461.1328125 l 1
 70.3134765625 461.1328125 l 1
EndSplineSet
Validated: 524289
EndChar

StartChar: z
Encoding: 122 122 89
Width: 1000
VWidth: 0
Flags: HW
LayerCount: 2
Fore
SplineSet
661.1328125 -129.686523438 m 1
 661.1328125 138.8671875 l 1
 929.6875 138.8671875 l 1
 929.6875 -129.686523438 l 1
 661.1328125 -129.686523438 l 1
70.3134765625 165.723632812 m 1
 70.3134765625 434.27734375 l 1
 338.8671875 434.27734375 l 1
 338.8671875 165.723632812 l 1
 70.3134765625 165.723632812 l 1
365.723632812 165.723632812 m 1
 365.723632812 434.27734375 l 1
 634.278320312 434.27734375 l 1
 634.278320312 165.723632812 l 1
 365.723632812 165.723632812 l 1
365.723632812 -129.686523438 m 1
 365.723632812 138.8671875 l 1
 634.278320312 138.8671875 l 1
 634.278320312 -129.686523438 l 1
 365.723632812 -129.686523438 l 1
EndSplineSet
Validated: 524289
EndChar

StartChar: braceleft
Encoding: 123 123 90
Width: 1000
VWidth: 0
Flags: HW
LayerCount: 2
Fore
SplineSet
365.723632812 729.6875 m 1
 634.278320312 729.6875 l 1
 634.278320312 461.133789062 l 1
 365.723632812 461.133789062 l 1
 365.723632812 729.6875 l 1
661.1328125 -129.686523438 m 1
 661.1328125 138.8671875 l 1
 929.6875 138.8671875 l 1
 929.6875 -129.686523438 l 1
 661.1328125 -129.686523438 l 1
70.3134765625 165.723632812 m 1
 70.3134765625 434.27734375 l 1
 338.8671875 434.27734375 l 1
 338.8671875 165.723632812 l 1
 70.3134765625 165.723632812 l 1
365.723632812 165.723632812 m 1
 365.723632812 434.27734375 l 1
 634.278320312 434.27734375 l 1
 634.278320312 165.723632812 l 1
 365.723632812 165.723632812 l 1
365.723632812 -129.686523438 m 1
 365.723632812 138.8671875 l 1
 634.278320312 138.8671875 l 1
 634.278320312 -129.686523438 l 1
 365.723632812 -129.686523438 l 1
661.1328125 461.1328125 m 1
 661.1328125 729.6875 l 1
 929.6875 729.6875 l 1
 929.6875 461.1328125 l 1
 661.1328125 461.1328125 l 1
EndSplineSet
Validated: 524289
EndChar

StartChar: bar
Encoding: 124 124 91
Width: 1000
VWidth: 0
Flags: HW
LayerCount: 2
Fore
SplineSet
365.723632812 729.6875 m 1
 634.278320312 729.6875 l 1
 634.278320312 461.133789062 l 1
 365.723632812 461.133789062 l 1
 365.723632812 729.6875 l 1
365.723632812 165.723632812 m 1
 365.723632812 434.27734375 l 1
 634.278320312 434.27734375 l 1
 634.278320312 165.723632812 l 1
 365.723632812 165.723632812 l 1
365.723632812 -129.686523438 m 1
 365.723632812 138.8671875 l 1
 634.278320312 138.8671875 l 1
 634.278320312 -129.686523438 l 1
 365.723632812 -129.686523438 l 1
EndSplineSet
Validated: 524289
EndChar

StartChar: braceright
Encoding: 125 125 92
Width: 1000
VWidth: 0
Flags: HW
LayerCount: 2
Fore
SplineSet
365.723632812 729.6875 m 1
 634.278320312 729.6875 l 1
 634.278320312 461.133789062 l 1
 365.723632812 461.133789062 l 1
 365.723632812 729.6875 l 1
661.1328125 165.723632812 m 1
 661.1328125 434.27734375 l 1
 929.6875 434.27734375 l 1
 929.6875 165.723632812 l 1
 661.1328125 165.723632812 l 1
70.3134765625 -129.686523438 m 1
 70.3134765625 138.8671875 l 1
 338.8671875 138.8671875 l 1
 338.8671875 -129.686523438 l 1
 70.3134765625 -129.686523438 l 1
365.723632812 165.723632812 m 1
 365.723632812 434.27734375 l 1
 634.278320312 434.27734375 l 1
 634.278320312 165.723632812 l 1
 365.723632812 165.723632812 l 1
365.723632812 -129.686523438 m 1
 365.723632812 138.8671875 l 1
 634.278320312 138.8671875 l 1
 634.278320312 -129.686523438 l 1
 365.723632812 -129.686523438 l 1
70.3134765625 461.1328125 m 1
 70.3134765625 729.6875 l 1
 338.8671875 729.6875 l 1
 338.8671875 461.1328125 l 1
 70.3134765625 461.1328125 l 1
EndSplineSet
Validated: 524289
EndChar

StartChar: asciitilde
Encoding: 126 126 93
Width: 1000
VWidth: 0
Flags: HW
LayerCount: 2
Fore
SplineSet
661.1328125 165.723632812 m 1
 661.1328125 434.27734375 l 1
 929.6875 434.27734375 l 1
 929.6875 165.723632812 l 1
 661.1328125 165.723632812 l 1
70.3134765625 165.723632812 m 1
 70.3134765625 434.27734375 l 1
 338.8671875 434.27734375 l 1
 338.8671875 165.723632812 l 1
 70.3134765625 165.723632812 l 1
70.3134765625 -129.686523438 m 1
 70.3134765625 138.8671875 l 1
 338.8671875 138.8671875 l 1
 338.8671875 -129.686523438 l 1
 70.3134765625 -129.686523438 l 1
365.723632812 165.723632812 m 1
 365.723632812 434.27734375 l 1
 634.278320312 434.27734375 l 1
 634.278320312 165.723632812 l 1
 365.723632812 165.723632812 l 1
661.1328125 461.1328125 m 1
 661.1328125 729.6875 l 1
 929.6875 729.6875 l 1
 929.6875 461.1328125 l 1
 661.1328125 461.1328125 l 1
EndSplineSet
Validated: 524289
EndChar
